<?xml version="1.0" standalone="no"?>
<!DOCTYPE svg PUBLIC "-//W3C//DTD SVG 20010904//EN"
 "http://www.w3.org/TR/2001/REC-SVG-20010904/DTD/svg10.dtd">
<svg version="1.0" xmlns="http://www.w3.org/2000/svg"
 width="200.000000pt" height="200.000000pt" viewBox="0 0 200.000000 200.000000"
 preserveAspectRatio="xMidYMid meet">
<metadata>
Created by potrace 1.14, written by Peter Selinger 2001-2017
</metadata>
<g transform="translate(0.000000,200.000000) scale(0.100000,-0.100000)"
fill="#000000" stroke="none">
<path d="M928 1705 c-2 -2 -25 -6 -53 -10 -99 -13 -256 -93 -342 -174 -207
-194 -265 -518 -141 -781 87 -183 257 -319 458 -364 336 -76 686 118 789 439
127 393 -111 804 -511 880 -60 11 -191 18 -200 10z m202 -46 c283 -58 491
-301 507 -593 14 -265 -139 -520 -356 -591 -107 -35 -278 -5 -408 71 l-43 25
0 150 c0 148 1 154 41 287 22 76 54 180 69 232 16 52 39 130 53 173 14 42 22
79 18 81 -3 2 -35 3 -70 2 l-65 -1 -54 -217 c-49 -194 -71 -255 -73 -200 0 9
-24 107 -53 217 l-52 200 -41 0 c-39 0 -41 1 -26 18 9 9 41 33 70 53 140 93
317 127 483 93z m-546 -434 c37 -121 76 -250 87 -286 15 -51 19 -88 17 -165
l-3 -99 -90 90 c-96 97 -143 166 -176 261 -27 75 -29 180 -5 251 16 49 93 180
101 172 1 -2 33 -103 69 -224z"/>
<path d="M1209 1494 c-119 -35 -171 -168 -119 -306 13 -35 56 -97 125 -180
125 -152 145 -187 145 -250 0 -59 -26 -88 -79 -88 -65 1 -91 40 -91 139 l0 58
-55 0 c-51 0 -56 -2 -62 -26 -4 -14 -7 -54 -6 -87 1 -116 65 -182 188 -191
108 -9 191 33 227 116 27 62 21 156 -15 227 -21 41 -163 228 -215 282 -60 64
-65 183 -7 198 75 19 117 -22 123 -121 2 -36 7 -65 11 -66 29 -4 84 -3 91 1
14 8 27 88 23 134 -4 59 -45 120 -96 145 -55 27 -129 32 -188 15z"/>
</g>
</svg>
