<?xml version="1.0" standalone="no"?>
<!DOCTYPE svg PUBLIC "-//W3C//DTD SVG 20010904//EN"
 "http://www.w3.org/TR/2001/REC-SVG-20010904/DTD/svg10.dtd">
<svg version="1.0" xmlns="http://www.w3.org/2000/svg"
 width="1332.000000pt" height="684.000000pt" viewBox="0 0 1332.000000 684.000000"
 preserveAspectRatio="xMidYMid meet">

<g transform="translate(0.000000,684.000000) scale(0.100000,-0.100000)"
fill="#000000" stroke="none">
<path d="M2217 6499 c-87 -11 -140 -39 -174 -91 l-28 -42 -3 -1153 -2 -1153
266 0 c147 0 270 -2 273 -6 5 -5 -1336 2 -1804 9 -109 2 -175 -12 -175 -36 0
-6 -10 -21 -21 -33 l-22 -23 1 -1653 c1 -1647 1 -1653 21 -1699 29 -65 56 -74
211 -72 69 1 408 5 754 8 l629 6 29 -21 c17 -12 42 -25 56 -28 15 -3 240 -7
500 -8 344 -2 471 0 466 8 -4 7 -3 8 4 4 7 -4 21 -1 33 8 52 36 50 -25 51
1123 1 587 5 974 8 858 4 -136 6 -172 8 -102 l2 107 1985 0 1985 0 0 -872 c0
-574 4 -886 11 -911 l10 -37 989 0 c873 0 990 -2 990 -15 0 -13 -147 -15
-1264 -15 -1114 0 -1265 2 -1270 15 -7 20 -56 20 -56 0 0 -28 126 -54 390 -79
133 -13 539 -16 2830 -18 l2675 -3 170 23 c265 35 345 53 345 78 0 19 -49 18
-56 -1 -5 -13 -156 -15 -1270 -15 -1115 0 -1264 2 -1264 15 0 13 119 15 992
17 l992 3 7 25 c12 44 10 3350 -2 3395 -14 51 -73 110 -124 124 -29 8 -733 11
-2490 11 -2361 0 -2451 -1 -2490 -19 -50 -23 -83 -58 -100 -108 -8 -21 -14
-30 -15 -20 -1 45 59 115 122 141 32 14 117 16 628 16 l590 0 -1 363 c-1 199
-4 668 -8 1043 l-6 680 -27 42 c-53 79 -10 74 -640 74 -310 0 -568 -1 -575 -1
-7 -1 -24 -21 -39 -46 -38 -66 -40 -55 -2 15 l33 60 505 0 c330 0 500 4 490
10 -19 12 -6027 11 -6123 -1z m2796 -406 c49 3 57 1 57 -15 0 -10 -4 -18 -10
-18 -5 0 -10 6 -10 13 0 9 -2 9 -8 1 -10 -16 -162 -13 -162 3 0 19 20 26 35
13 12 -10 15 -9 15 5 0 13 3 15 13 6 7 -6 39 -9 70 -8z m176 1 c1 15 4 16 16
6 25 -21 18 -39 -15 -38 -16 1 -27 5 -24 9 2 4 -1 11 -7 15 -8 4 -7 9 2 15 9
5 16 2 21 -9 6 -15 7 -15 7 2z m96 6 c4 -6 11 -8 16 -5 5 4 9 1 9 -4 0 -6 0
-14 0 -18 0 -5 -18 -8 -40 -8 -42 -1 -48 6 -27 30 14 17 33 19 42 5z m476 -9
c-10 -7 -10 -10 -1 -16 7 -4 16 -2 20 5 12 19 100 19 100 0 0 -13 2 -13 9 -1
12 19 63 22 57 4 -3 -7 -1 -13 4 -13 6 0 10 7 10 15 0 8 5 15 10 15 6 0 10 -8
10 -18 0 -17 -10 -18 -117 -18 -89 1 -117 4 -121 15 -4 13 18 34 27 25 3 -3
-1 -9 -8 -13z m-1112 -16 c0 -11 -3 -14 -6 -7 -4 10 -8 10 -19 1 -11 -9 -14
-7 -14 9 0 15 6 20 20 19 13 -1 20 -8 19 -22z m142 16 c6 -1 9 -7 7 -13 -6
-18 -138 -20 -138 -3 0 6 2 14 4 16 4 3 91 3 127 0z m829 -13 c0 -14 -9 -17
-44 -16 -24 0 -49 -3 -55 -6 -6 -4 -11 -3 -11 3 0 6 -7 8 -16 4 -9 -3 -20 0
-25 8 -8 12 -10 12 -18 0 -7 -11 -9 -11 -13 0 -4 12 -7 12 -21 0 -15 -12 -17
-11 -17 5 0 18 9 19 110 19 97 0 110 -2 110 -17z m26 -15 c-11 -11 -19 6 -11
24 8 17 8 17 12 0 3 -10 2 -21 -1 -24z m1365 -819 c252 -48 447 -228 510 -472
25 -97 26 -257 2 -333 -9 -30 -20 -58 -23 -62 -4 -5 -24 6 -43 23 -31 27 -154
80 -225 97 -12 3 -27 14 -33 26 -13 23 -5 87 16 127 8 15 24 57 36 93 29 89
21 208 -19 282 l-27 49 -105 21 c-101 20 -108 21 -170 5 -81 -21 -96 -29 -143
-78 -30 -31 -38 -46 -35 -68 2 -21 9 -30 26 -32 12 -2 22 -8 22 -13 0 -5 22
-9 50 -9 40 0 51 -4 60 -21 16 -30 5 -52 -22 -45 -13 3 -17 3 -10 0 6 -3 12
-14 12 -24 0 -24 -77 -34 -101 -13 -10 8 -26 12 -42 8 -19 -5 -33 2 -68 34
-39 36 -68 54 -56 34 6 -9 -54 -8 -123 1 -35 5 -40 4 -22 -3 13 -6 22 -19 22
-32 l0 -22 -19 21 c-10 12 -25 22 -33 22 -15 0 -64 -97 -55 -107 13 -13 -22
-64 -84 -122 l-69 -64 0 54 c1 294 230 564 530 624 89 18 143 18 241 -1z
m-4281 -9 c0 -21 30 -19 31 3 1 15 2 15 6 1 3 -13 12 -16 44 -12 27 4 39 2 39
-7 0 -10 3 -10 15 0 19 16 19 7 0 -30 -9 -17 -20 -30 -26 -30 -8 0 -8 5 1 15
16 19 5 34 -21 28 -16 -4 -17 -8 -7 -14 8 -5 1 -8 -19 -6 -19 1 -33 8 -33 15
0 6 -7 12 -15 12 -8 0 -15 -4 -15 -10 0 -5 -4 -10 -10 -10 -5 0 -10 14 -10 30
0 17 5 30 10 30 6 0 10 -7 10 -15z m254 1 c18 -9 50 -12 101 -9 63 4 75 2 75
-11 0 -9 -8 -16 -17 -17 -15 0 -15 -2 2 -9 19 -8 19 -9 -2 -9 -13 -1 -24 7
-28 19 -9 27 -25 25 -26 -2 0 -13 -3 -17 -6 -10 -2 6 -14 12 -26 12 -18 0 -19
-2 -7 -10 11 -7 6 -9 -17 -7 -24 1 -33 7 -33 20 0 9 -4 17 -10 17 -5 0 -14 -8
-19 -17 -9 -15 -10 -14 -11 10 0 15 -4 27 -10 27 -5 0 -11 -12 -11 -27 -2 -28
-2 -28 -6 -3 -3 14 -10 28 -17 32 -20 14 41 8 68 -6z m223 -18 c-3 -7 -5 -2
-5 12 0 14 2 19 5 13 2 -7 2 -19 0 -25z m-457 -319 c0 -60 -3 -80 -12 -77 -9
3 -14 31 -16 81 -2 64 0 77 13 77 12 0 15 -15 15 -81z m487 51 c9 -16 20 -30
23 -30 3 0 14 14 23 30 10 17 25 30 33 30 17 0 14 -7 -23 -56 -14 -19 -23 -45
-23 -68 0 -51 -24 -43 -28 9 -2 22 -11 50 -21 64 -31 45 -33 51 -17 51 8 0 23
-13 33 -30z m697 8 c14 -24 -3 -37 -19 -15 -16 22 -60 19 -60 -3 0 -8 16 -19
35 -25 47 -13 60 -23 60 -42 0 -27 -31 -53 -63 -53 -29 0 -67 24 -67 42 0 13
20 9 37 -8 21 -21 58 -14 58 10 0 14 -10 22 -35 28 -32 9 -60 31 -60 49 0 37
92 51 114 17z m56 2 c0 -16 7 -20 30 -20 36 0 50 -23 50 -79 0 -30 -4 -41 -15
-41 -11 0 -15 12 -15 50 0 42 -3 50 -19 50 -22 0 -31 -19 -31 -66 0 -19 -4
-34 -10 -34 -6 0 -10 33 -10 80 0 47 4 80 10 80 6 0 10 -9 10 -20z m360 10 c0
-5 -4 -10 -10 -10 -5 0 -10 5 -10 10 0 6 5 10 10 10 6 0 10 -4 10 -10z m-1426
-42 c3 -7 7 -34 10 -59 l5 -46 -46 1 c-60 1 -80 27 -44 57 13 10 32 19 42 19
10 0 19 5 19 10 0 15 -48 12 -53 -2 -2 -7 -8 -10 -12 -6 -4 4 -5 14 -2 23 8
18 76 21 81 3z m194 -50 c2 -36 -1 -58 -8 -58 -5 0 -10 20 -10 45 0 33 -5 47
-16 52 -21 8 -34 -14 -34 -59 0 -21 -4 -38 -10 -38 -5 0 -10 23 -10 50 0 42
-3 50 -19 50 -20 0 -31 -25 -31 -72 0 -16 -4 -28 -10 -28 -6 0 -10 27 -10 60
l0 60 78 -3 77 -2 3 -57z m297 50 c2 -7 5 -34 8 -59 l4 -46 -45 1 c-74 2 -88
58 -18 72 20 3 36 10 36 15 0 14 -48 11 -53 -3 -2 -7 -8 -10 -12 -6 -4 4 -5
14 -2 23 8 18 76 21 82 3z m95 3 c0 -5 -9 -11 -20 -14 -16 -4 -20 -14 -20 -51
0 -25 -4 -46 -10 -46 -6 0 -10 27 -10 60 l0 60 30 0 c17 0 30 -4 30 -9z m108
-23 c26 -55 -25 -107 -76 -79 -28 15 -36 58 -17 88 23 34 75 29 93 -9z m116
16 c3 -9 6 -36 6 -61 0 -61 -24 -53 -28 10 -3 38 -7 47 -22 47 -15 0 -19 -9
-22 -47 -5 -73 -28 -68 -28 6 l0 61 44 0 c31 0 46 -5 50 -16z m446 -3 c5 -11
10 -37 10 -59 l0 -39 -46 1 c-61 1 -81 27 -45 57 13 10 32 19 42 19 10 0 19 5
19 10 0 14 -33 13 -48 -2 -15 -15 -26 -4 -19 17 9 23 74 20 87 -4z m128 -13
c18 -38 -2 -82 -40 -86 -16 -2 -28 -11 -31 -23 -3 -10 -10 -19 -16 -19 -7 0
-11 29 -11 81 l0 80 42 -3 c35 -2 45 -8 56 -30z m48 8 c8 -35 1 -89 -13 -94
-10 -3 -13 13 -13 57 0 61 14 82 26 37z m89 14 c-3 -5 -12 -10 -20 -10 -9 0
-15 -15 -17 -47 -5 -73 -28 -68 -28 6 l0 61 36 0 c21 0 33 -4 29 -10z m99 -6
c3 -9 6 -35 6 -58 l0 -42 -45 -2 c-35 -1 -47 3 -55 18 -8 15 -6 24 10 40 11
11 29 20 40 20 11 0 20 5 20 10 0 14 -33 13 -48 -2 -17 -17 -28 -2 -12 17 17
20 76 20 84 -1z m2086 -159 c-7 -8 -18 -15 -24 -15 -6 0 -2 7 8 15 25 19 32
19 16 0z m126 3 c4 -6 8 -50 8 -98 1 -71 5 -94 26 -133 20 -38 30 -47 51 -47
35 0 56 -24 39 -45 -25 -30 -80 -12 -80 26 0 25 -17 27 -115 13 -49 -8 -110
-16 -135 -18 -25 -2 -67 -14 -95 -26 -49 -21 -160 -30 -185 -15 -20 12 -10 42
27 81 82 85 126 114 213 141 60 18 98 37 130 64 26 22 51 39 57 39 6 0 16 7
23 15 15 18 26 19 36 3z m-260 -63 c9 -21 -14 -45 -42 -45 -45 0 -21 59 24 60
7 0 15 -7 18 -15z m417 -8 c3 -8 2 -19 -1 -24 -4 -6 -7 -36 -7 -66 0 -52 -1
-54 -20 -41 -14 9 -20 23 -19 51 2 85 3 93 23 93 10 0 21 -6 24 -13z m-508
-47 c-3 -5 -11 -10 -16 -10 -6 0 -7 5 -4 10 3 6 11 10 16 10 6 0 7 -4 4 -10z
m-3635 -58 c0 -5 -10 -8 -22 -8 -17 1 -23 -5 -23 -19 0 -14 6 -20 23 -19 15 0
19 -3 13 -9 -22 -22 -60 16 -47 48 6 15 56 21 56 7z m470 -1 c0 -5 -9 -7 -20
-4 -29 8 -25 -6 6 -17 14 -6 24 -16 21 -23 -5 -16 -36 -22 -50 -8 -7 7 -3 8
12 4 11 -3 21 -1 21 5 0 5 -9 12 -20 15 -29 8 -26 37 5 37 14 0 25 -4 25 -9z
m378 2 c-24 -6 -23 -19 3 -26 12 -3 19 -12 17 -19 -6 -18 -38 -23 -52 -8 -8 9
-6 11 12 5 13 -4 22 -2 22 4 0 6 -6 11 -14 11 -8 0 -18 5 -21 10 -10 16 4 30
28 29 17 -1 18 -2 5 -6z m225 -16 c34 2 65 10 69 16 4 7 8 8 9 2 4 -47 4 -65
-2 -65 -4 0 -9 10 -12 23 -4 22 -4 22 -15 -3 -10 -24 -11 -24 -11 -2 -1 26
-21 30 -21 3 0 -17 -9 -18 -105 -19 l-105 0 0 29 c0 40 27 36 45 -6 8 -20 9
-20 12 1 3 16 11 22 31 22 14 0 28 6 31 13 4 11 6 10 8 -2 3 -13 15 -15 66
-12z m277 -12 c0 -33 -2 -35 -31 -33 -21 2 -34 9 -40 23 -8 20 -8 20 -15 -2
-5 -17 -14 -23 -35 -23 -32 0 -48 17 -24 26 13 5 14 9 4 15 -7 4 18 7 56 7 44
-1 70 3 73 10 7 22 12 12 12 -23z m160 26 c-24 -7 -24 -7 -5 -19 17 -9 17 -11
3 -12 -9 0 -19 -8 -21 -17 -3 -10 -5 -1 -6 20 -1 34 1 37 27 36 l27 -1 -25 -7z
m221 -11 c24 0 29 -4 29 -25 0 -22 -4 -25 -35 -25 -19 0 -35 5 -35 10 0 6 -10
10 -22 9 -22 0 -22 -1 -3 -9 19 -8 19 -9 -2 -9 -12 -1 -25 4 -28 9 -3 6 -16
10 -28 9 -21 0 -21 -1 -2 -9 19 -8 19 -9 -3 -9 -15 -1 -26 7 -31 22 l-9 22
-10 -25 -11 -25 0 28 -1 29 75 -4 c63 -4 75 -2 76 11 0 11 2 12 6 4 2 -7 18
-13 34 -13z m-1377 -2 c23 0 35 -2 29 -5 -7 -3 -13 -14 -13 -26 0 -16 -3 -18
-12 -9 -7 7 -19 12 -27 11 -11 0 -10 -3 4 -9 19 -8 19 -9 -3 -9 -14 -1 -26 7
-33 22 -9 21 -9 21 -5 1 3 -19 -1 -22 -33 -22 -20 0 -42 5 -48 10 -9 7 -13 7
-13 -1 0 -6 -6 -11 -14 -11 -8 0 -17 -6 -19 -12 -3 -8 -6 -6 -6 5 -1 9 -7 17
-15 17 -8 0 -17 8 -19 18 -4 14 -6 12 -13 -8 l-8 -25 -7 25 c-7 23 -8 24 -14
5 -8 -26 -60 -33 -69 -9 -10 26 1 32 64 33 46 0 61 -3 69 -17 10 -16 10 -16
11 0 0 28 68 22 73 -6 3 -21 4 -21 12 -1 12 27 26 36 49 29 10 -4 37 -6 60 -6z
m416 -15 c0 -7 -8 -13 -17 -14 -15 0 -15 -2 2 -9 14 -5 6 -8 -27 -7 -27 0 -48
4 -48 8 0 5 -7 6 -15 3 -9 -4 -15 0 -15 10 0 25 -20 19 -21 -6 0 -13 -3 -17
-6 -10 -2 6 -14 12 -26 11 -21 0 -21 -1 -2 -9 13 -5 -1 -7 -40 -6 -54 1 -60 3
-63 23 -3 22 -2 22 137 21 110 -1 141 -4 141 -15z m670 -8 c0 -18 -5 -25 -19
-25 -26 0 -37 18 -16 26 13 6 14 8 3 15 -9 6 -7 9 10 9 17 0 22 -6 22 -25z
m512 -2 c-3 -17 -8 -21 -15 -14 -6 6 -20 11 -31 10 -21 0 -21 0 -1 -9 14 -6 1
-8 -40 -7 -50 2 -61 5 -66 22 -6 19 -7 18 -17 -5 l-11 -25 0 26 -1 26 93 0 94
0 -5 -24z m2188 -43 c0 -5 -4 -10 -10 -10 -5 0 -10 5 -10 10 0 6 5 10 10 10 6
0 10 -4 10 -10z m65 -134 c18 -11 41 -26 51 -33 17 -11 15 -12 -14 -12 -43 -1
-98 22 -111 47 -21 39 13 38 74 -2z m-606 -33 c6 -21 13 -58 17 -82 6 -38 5
-43 -11 -40 -19 4 -97 137 -89 151 3 4 20 8 39 8 31 0 35 -3 44 -37z m-3575
-12 c4 -5 -4 -7 -16 -3 -14 3 -19 2 -14 -6 4 -7 14 -12 23 -12 9 0 13 -3 9 -7
-10 -11 -40 -10 -48 1 -3 5 -4 15 -1 23 6 15 39 18 47 4z m156 -11 c0 -14 -7
-20 -22 -20 -19 0 -20 -2 -8 -10 8 -5 10 -10 4 -10 -18 0 -37 28 -30 45 3 8
17 15 31 15 18 0 25 -5 25 -20z m147 4 c3 -8 0 -21 -7 -27 -9 -9 -11 -8 -8 7
1 10 -3 21 -11 24 -10 3 -12 -1 -8 -17 3 -11 1 -21 -3 -21 -14 0 -22 19 -16
35 7 20 45 19 53 -1z m151 -6 c-4 -31 -48 -39 -48 -9 0 17 12 25 43 30 5 0 7
-9 5 -21z m167 -3 c0 -15 -8 -21 -32 -23 -27 -3 -33 0 -33 16 0 26 10 33 40
30 17 -2 25 -9 25 -23z m3133 -197 c7 -7 12 -24 12 -39 0 -35 -21 -30 -75 16
l-40 34 46 1 c25 0 50 -5 57 -12z m-2940 -83 c6 -2 12 -11 12 -20 0 -12 -13
-15 -59 -15 -60 0 -77 9 -68 34 5 13 81 13 115 1z m82 5 c0 -4 8 -7 17 -6 10
0 19 -7 21 -16 3 -15 -4 -18 -42 -18 -45 0 -62 10 -53 33 5 13 57 20 57 7z
m148 1 c35 -1 42 -4 42 -21 0 -18 -7 -20 -64 -20 -36 0 -68 5 -71 10 -12 19 2
37 27 34 12 -1 42 -3 66 -3z m137 -21 c0 -21 -5 -26 -33 -28 -34 -3 -50 14
-38 44 4 10 16 14 38 12 28 -2 33 -7 33 -28z m-1000 -10 c10 -11 14 -20 8 -20
-5 0 -18 9 -28 20 -10 11 -14 20 -8 20 5 0 18 -9 28 -20z m6658 -137 c46 3 57
0 57 -13 0 -12 -14 -16 -67 -17 -84 -3 -113 3 -113 22 0 18 26 20 33 3 3 -8 6
-5 6 6 1 14 4 16 14 7 7 -6 39 -9 70 -8z m205 0 c20 -19 14 -28 -22 -30 -29
-1 -33 1 -31 20 1 12 3 23 4 23 5 6 38 -3 49 -13z m72 5 c0 -4 5 -7 12 -5 6 1
13 -5 15 -14 3 -13 -4 -16 -37 -15 -33 1 -40 4 -40 21 0 16 6 21 25 21 14 0
25 -4 25 -8z m476 -5 c-4 -9 -1 -20 6 -25 10 -6 9 -8 -3 -8 -21 0 -31 24 -16
39 16 16 20 14 13 -6z m-1106 -4 c0 -5 5 -7 12 -3 17 11 71 12 85 1 6 -4 14
-3 18 3 8 13 25 3 25 -14 0 -10 -22 -13 -90 -12 -79 1 -90 3 -90 19 0 10 8 17
20 17 11 0 20 -5 20 -11z m998 -12 c3 -12 -3 -17 -22 -17 -14 0 -26 5 -26 10
0 6 -5 10 -11 10 -5 0 -8 -4 -4 -10 3 -5 -9 -8 -29 -6 -20 1 -37 -2 -39 -8 -2
-5 -16 -3 -35 7 -22 11 -32 12 -32 4 0 -7 -4 -6 -9 2 -8 12 -12 12 -25 2 -14
-11 -16 -11 -16 5 0 18 9 19 122 18 107 0 123 -2 126 -17z m232 3 c0 -12 -12
-16 -50 -16 -33 -1 -50 3 -50 11 0 18 5 20 54 20 35 0 46 -3 46 -15z m66 -2
c0 -13 -8 -18 -28 -18 -17 0 -28 5 -28 13 0 19 5 22 32 22 16 0 24 -6 24 -17z
m34 2 c0 -11 -4 -20 -10 -20 -5 0 -10 9 -10 20 0 11 5 20 10 20 6 0 10 -9 10
-20z m-9098 -189 c-14 -8 -93 -1 -88 8 2 3 25 5 51 3 26 -3 43 -7 37 -11z
m113 9 l30 -2 -35 -9 c-19 -4 -41 -6 -47 -4 -20 7 -15 24 5 20 9 -2 31 -4 47
-5z m150 0 c6 -1 -1 -5 -15 -9 -28 -8 -60 -3 -60 9 0 7 46 7 75 0z m128 -1
l52 -1 -40 -8 c-45 -9 -95 -2 -95 12 0 6 7 7 16 4 9 -3 39 -7 67 -7z m164 1
c26 0 43 -3 39 -7 -10 -10 -96 -10 -96 0 0 5 -4 5 -10 2 -5 -3 -10 -1 -10 5 0
7 7 9 16 6 9 -3 36 -6 61 -6z m-1061 -309 c36 4 55 -1 49 -11 -5 -8 -11 -8
-20 0 -10 8 -14 8 -17 -1 -3 -8 -11 -10 -24 -4 -10 4 -22 7 -26 7 -5 -1 -8 5
-8 14 0 13 3 14 14 5 7 -6 22 -10 32 -10z m1427 3 c65 -22 122 -88 138 -159
13 -58 5 -130 -14 -122 -104 41 -99 38 -93 71 19 96 19 133 -3 155 -43 43
-176 16 -158 -32 4 -10 15 -17 26 -17 26 0 34 -15 17 -29 -16 -13 -61 -8 -82
10 -23 19 -83 2 -90 -25 -3 -13 -17 -35 -31 -48 l-26 -23 7 44 c22 145 163
225 309 175z m-1518 -6 c2 -2 0 -10 -5 -18 -7 -11 -10 -12 -10 -2 0 7 -4 10
-10 7 -5 -3 -20 1 -32 10 -22 15 -22 16 16 11 21 -3 40 -6 41 -8z m32 -10 c-3
-8 -6 -5 -6 6 -1 11 2 17 5 13 3 -3 4 -12 1 -19z m-100 -150 c-2 -13 -4 -5 -4
17 -1 22 1 32 4 23 2 -10 2 -28 0 -40z m277 41 c11 9 11 5 2 -24 -12 -38 -26
-47 -26 -16 0 11 -4 23 -10 26 -5 3 -10 11 -10 17 0 7 6 6 15 -2 11 -9 18 -10
29 -1z m311 -26 c23 -10 25 -9 25 14 0 19 4 24 16 19 9 -3 20 -6 25 -6 5 0 9
-9 9 -21 0 -16 4 -19 20 -14 16 5 19 3 13 -11 -4 -12 -3 -15 5 -10 7 4 12 16
12 27 0 16 -4 19 -21 14 -14 -5 -19 -3 -15 3 3 6 35 10 71 10 l65 -1 0 -30 c0
-21 -4 -28 -14 -24 -8 3 -23 -3 -34 -14 -25 -22 -32 -24 -32 -6 0 8 -14 12
-40 11 -37 -1 -40 1 -40 28 0 15 -4 28 -10 28 -5 0 -10 -12 -10 -26 0 -18 -4
-25 -14 -21 -7 3 -18 1 -24 -5 -12 -12 -52 -1 -52 15 0 8 3 8 12 -1 17 -17 38
-15 38 3 0 8 -9 15 -19 15 -24 0 -35 15 -24 33 6 9 8 8 11 -3 1 -8 14 -20 27
-27z m15 27 c0 -5 -2 -10 -4 -10 -3 0 -8 5 -11 10 -3 6 -1 10 4 10 6 0 11 -4
11 -10z m-502 -36 c3 -27 0 -31 -20 -30 -26 1 -39 36 -14 36 9 0 16 5 16 11 0
6 -7 8 -16 5 -9 -3 -12 -2 -9 5 13 21 40 4 43 -27z m90 -1 c-1 -37 -1 -37 -5
-5 -5 38 -23 44 -23 7 0 -14 -4 -25 -10 -25 -5 0 -10 12 -10 27 0 32 -16 20
-23 -17 -3 -18 -5 -15 -6 13 -1 37 -1 37 39 37 40 0 40 0 38 -37z m250 24 c8
-6 12 -6 12 2 0 7 10 11 23 9 18 -2 22 -10 24 -38 1 -23 -1 -27 -4 -10 -7 37
-23 49 -23 18 0 -15 -4 -30 -10 -33 -5 -3 -10 -1 -10 6 0 8 -4 8 -15 -1 -21
-18 -45 -5 -45 25 0 14 -4 25 -10 25 -5 0 -10 -11 -10 -25 0 -14 -6 -25 -12
-26 -7 0 -23 -2 -35 -5 -33 -6 -39 16 -12 38 l24 19 -24 -6 c-15 -5 -21 -3
-17 3 8 13 127 13 144 -1z m467 -22 c0 -32 -27 -47 -49 -25 -8 8 -5 16 14 30
l25 19 -30 -3 c-24 -3 -31 -9 -36 -32 -6 -27 -7 -27 -8 8 l-1 37 43 -2 c40 -2
42 -4 42 -32z m545 -29 c0 -25 7 -40 25 -54 17 -14 22 -23 14 -28 -6 -4 -16 1
-21 10 -6 10 -17 14 -31 11 -32 -7 -77 -15 -119 -22 -47 -7 -50 8 -8 45 17 15
30 32 30 39 0 7 5 13 11 13 5 0 7 -4 4 -10 -10 -17 18 -11 50 10 41 27 45 25
45 -14z m47 -18 c-3 -7 -5 -2 -5 12 0 14 2 19 5 13 2 -7 2 -19 0 -25z m9096
-23 c192 -50 351 -212 398 -405 24 -102 12 -283 -21 -323 -4 -4 -21 4 -38 18
-17 15 -57 36 -89 47 -32 12 -74 27 -93 34 -31 11 -35 16 -38 52 -2 25 5 58
16 84 38 85 45 119 39 199 -4 47 -14 94 -26 117 -18 36 -24 39 -97 56 -125 30
-228 7 -288 -64 -32 -38 -35 -80 -7 -80 11 0 23 -4 26 -10 3 -5 24 -10 45 -10
28 0 42 -5 49 -18 11 -20 -1 -48 -17 -38 -6 3 -8 -2 -5 -13 4 -15 -3 -19 -33
-24 -23 -4 -43 -2 -52 5 -8 7 -24 12 -37 13 -12 0 -37 11 -55 25 -27 20 -45
25 -102 26 -50 1 -67 -1 -59 -9 21 -21 11 -29 -14 -13 -24 16 -25 16 -45 -16
-11 -18 -20 -45 -20 -60 0 -21 -17 -45 -64 -94 -62 -63 -64 -64 -68 -39 -7 34
14 145 40 212 26 68 101 172 155 216 60 49 144 94 207 111 72 19 221 20 293 1z
m-3718 -25 c8 0 19 8 24 18 9 14 10 15 11 1 0 -12 8 -14 30 -11 17 2 37 -1 45
-8 10 -9 15 -9 15 -1 0 6 4 11 10 11 13 0 -15 -63 -32 -69 -10 -3 -11 -1 -1
11 16 19 7 28 -26 27 -24 0 -24 -1 -6 -9 16 -7 17 -9 3 -9 -9 -1 -20 4 -23 9
-4 6 -11 8 -16 5 -5 -4 -9 -1 -9 4 0 18 -38 12 -43 -6 -3 -10 -5 0 -5 22 0 22
2 32 5 23 2 -10 11 -18 18 -18z m237 19 c2 -7 37 -12 93 -13 61 -1 90 -5 92
-13 3 -8 -5 -13 -19 -14 -22 0 -22 -1 -3 -9 18 -8 18 -9 2 -9 -11 -1 -21 8
-24 19 -6 23 -23 27 -23 5 0 -11 -8 -13 -32 -10 -26 4 -29 3 -13 -4 17 -8 15
-9 -12 -8 -24 2 -33 7 -33 20 0 24 -19 21 -30 -5 -8 -21 -9 -20 -9 10 -1 21
-6 32 -16 32 -10 0 -16 -11 -16 -32 l-2 -33 -4 30 c-3 16 -10 33 -16 37 -7 4
5 8 25 8 20 0 38 -5 40 -11z m225 -21 c-3 -7 -5 -2 -5 12 0 14 2 19 5 13 2 -7
2 -19 0 -25z m-7335 -35 c-6 -2 -9 -10 -6 -15 4 -7 2 -8 -5 -4 -13 9 -5 26 12
25 9 0 8 -2 -1 -6z m198 -15 c0 -6 -22 -8 -50 -6 -28 1 -50 -1 -50 -5 0 -5 -4
-6 -10 -2 -5 3 -25 6 -45 7 -58 2 -26 17 45 20 77 4 110 -1 110 -14z m47 14
c-3 -4 30 -5 74 -3 50 2 79 -1 79 -7 0 -16 -162 -10 -168 6 -2 6 1 12 8 12 6
0 9 -3 7 -8z m343 -9 c0 -9 -22 -13 -76 -13 -57 0 -73 3 -68 13 5 8 2 8 -9 -2
-15 -11 -17 -11 -17 1 0 12 17 15 85 14 61 -1 85 -5 85 -13z m100 2 c0 -11
-11 -15 -40 -15 -23 0 -40 5 -40 11 0 7 12 9 30 7 17 -3 33 -1 36 4 8 12 14
10 14 -7z m75 6 c3 -5 1 -12 -5 -16 -5 -3 -10 1 -10 9 0 18 6 21 15 7z m765
-1 c13 -8 13 -10 -2 -10 -9 0 -20 5 -23 10 -8 13 5 13 25 0z m-800 -10 c0 -5
-4 -10 -10 -10 -5 0 -10 5 -10 10 0 6 5 10 10 10 6 0 10 -4 10 -10z m260 1 c0
-4 -47 -9 -105 -10 -66 -1 -105 2 -105 9 0 6 40 10 105 10 58 0 105 -4 105 -9z
m324 -7 c11 -28 6 -39 -9 -20 -8 11 -15 23 -15 28 0 14 18 9 24 -8z m66 -84
c0 -5 -2 -10 -4 -10 -3 0 -8 5 -11 10 -3 6 -1 10 4 10 6 0 11 -4 11 -10z
m-1290 -13 c0 -8 -7 -14 -15 -14 -16 0 -19 9 -8 20 11 11 23 8 23 -6z m68 -5
c2 -7 -3 -12 -12 -12 -9 0 -16 7 -16 16 0 17 22 14 28 -4z m63 -5 c-13 -13
-26 -3 -16 12 3 6 11 8 17 5 6 -4 6 -10 -1 -17z m79 3 c0 -5 -9 -10 -20 -10
-11 0 -20 5 -20 10 0 6 9 10 20 10 11 0 20 -4 20 -10z m6588 -137 c-2 -50 -7
-78 -15 -81 -10 -3 -13 17 -13 77 0 66 3 81 15 81 13 0 15 -13 13 -77z m486
45 l19 -31 26 32 c37 44 59 40 25 -5 -16 -20 -30 -54 -33 -77 -8 -54 -31 -62
-31 -10 0 28 -9 51 -31 81 -27 37 -28 42 -12 42 10 0 27 -14 37 -32z m700 10
c15 -24 0 -34 -22 -15 -10 10 -29 17 -41 17 -38 0 -21 -32 25 -47 49 -16 62
-45 33 -74 -31 -31 -109 -19 -109 16 0 19 14 19 30 0 15 -18 42 -19 58 -3 19
19 15 26 -25 39 -21 6 -44 16 -50 22 -17 12 -17 39 -1 55 18 18 89 11 102 -10z
m56 3 c0 -15 8 -21 33 -23 32 -3 32 -4 35 -60 2 -34 -1 -58 -7 -58 -5 0 -11
21 -13 48 -3 39 -6 47 -23 47 -17 0 -20 -8 -23 -48 -5 -79 -27 -53 -30 36 -2
64 0 77 13 77 8 0 15 -9 15 -19z m360 9 c0 -5 -4 -10 -10 -10 -5 0 -10 5 -10
10 0 6 5 10 10 10 6 0 10 -4 10 -10z m-6168 -35 c11 -7 -138 -10 -462 -10
-263 0 -477 2 -474 4 15 15 129 19 499 18 259 -1 426 -6 437 -12z m-1779 -4
c9 0 17 -5 17 -11 0 -6 -40 -10 -100 -10 -88 0 -112 5 -95 21 4 4 126 4 178 0z
m65 -8 c-2 -10 -10 -18 -18 -18 -8 0 -16 8 -18 18 -2 12 3 17 18 17 15 0 20
-5 18 -17z m6456 9 c2 -4 6 -30 7 -57 l3 -50 -40 -3 c-73 -5 -90 55 -21 72 20
5 37 13 37 18 0 13 -48 9 -53 -4 -2 -7 -8 -10 -12 -6 -4 4 -5 14 -2 23 7 16
72 22 81 7z m187 -13 c13 -26 8 -91 -8 -97 -9 -2 -13 11 -13 47 0 44 -3 51
-20 51 -17 0 -20 -7 -20 -51 0 -66 -24 -62 -28 5 -3 38 -6 47 -20 44 -13 -2
-18 -16 -20 -51 -4 -68 -22 -58 -22 13 l0 59 70 0 c59 -1 72 -4 81 -20z m307
-40 c3 -56 3 -57 -25 -57 -62 1 -74 7 -71 36 2 20 11 29 36 36 17 5 32 13 32
17 0 13 -34 11 -48 -3 -17 -17 -27 -2 -12 17 9 11 26 15 49 13 l36 -3 3 -56z
m87 51 c-3 -5 -13 -10 -21 -10 -10 0 -14 -13 -14 -50 0 -27 -4 -50 -10 -50 -6
0 -10 27 -10 60 l0 60 31 0 c17 0 28 -4 24 -10z m105 -9 c34 -65 -30 -132 -82
-84 -20 18 -23 54 -8 84 7 13 21 19 45 19 24 0 38 -6 45 -19z m118 -43 c2 -34
-1 -58 -7 -58 -5 0 -11 21 -13 48 -3 39 -6 47 -23 47 -17 0 -20 -8 -23 -47 -4
-69 -22 -59 -22 13 l0 60 43 -3 42 -3 3 -57z m447 50 c2 -7 5 -34 8 -59 l4
-47 -41 0 c-22 -1 -46 4 -53 10 -22 18 -15 48 15 59 55 20 58 22 33 27 -13 2
-27 -2 -32 -9 -10 -17 -23 -4 -16 16 8 18 76 21 82 3z m125 -7 c24 -46 -1
-101 -47 -101 -16 0 -23 -6 -23 -20 0 -11 -4 -20 -10 -20 -6 0 -10 33 -10 80
l0 80 40 0 c29 0 42 -5 50 -19z m50 -41 c0 -33 -4 -60 -10 -60 -6 0 -10 27
-10 60 0 33 4 60 10 60 6 0 10 -27 10 -60z m90 51 c0 -5 -9 -11 -20 -14 -16
-4 -20 -14 -20 -51 0 -25 -4 -46 -10 -46 -6 0 -10 27 -10 60 l0 60 30 0 c17 0
30 -4 30 -9z m98 -3 c7 -7 12 -33 12 -58 l0 -47 -46 1 c-61 1 -81 27 -45 57
13 10 32 19 42 19 10 0 19 5 19 10 0 6 -9 10 -19 10 -11 0 -23 -4 -26 -10 -9
-15 -25 -12 -25 4 0 26 66 36 88 14z m-2258 -43 l0 -35 -1988 0 -1988 0 -31
35 -31 35 2019 0 2019 0 0 -35z m-4850 -25 c0 -12 11 -32 25 -45 l24 -25 244
0 c231 0 244 1 265 20 12 11 25 32 28 45 6 24 10 25 81 25 72 0 76 -1 109 -34
19 -19 34 -43 34 -55 l0 -21 -519 0 -520 0 10 33 c5 17 20 42 34 55 22 19 37
22 106 22 73 0 79 -2 79 -20z m8660 -34 c0 -2 -7 -7 -16 -10 -8 -3 -12 -2 -9
4 6 10 25 14 25 6z m111 -13 c1 -10 0 -46 -1 -79 -1 -52 2 -68 25 -103 20 -29
35 -41 52 -41 27 0 42 -28 22 -41 -24 -16 -53 -5 -67 24 -10 21 -18 26 -35 22
-12 -3 -42 -7 -67 -10 -95 -10 -172 -25 -200 -40 -16 -8 -55 -15 -88 -15 -76
0 -86 17 -40 68 61 70 117 109 183 127 43 11 83 31 121 61 60 46 93 56 95 27z
m-9024 -25 c-3 -8 -6 -5 -6 6 -1 11 2 17 5 13 3 -3 4 -12 1 -19z m8801 -27
c-4 -21 -58 -28 -58 -7 0 18 29 36 47 29 8 -3 13 -13 11 -22z m-8830 -1008
c-1 -566 -4 -982 -5 -925 l-4 102 -724 0 c-718 0 -725 0 -725 20 0 19 7 20
196 20 176 0 198 2 210 18 13 16 14 16 8 0 -4 -12 -1 -18 10 -18 8 0 18 11 22
25 3 14 10 25 15 25 5 0 4 -11 -1 -25 -8 -20 -6 -25 6 -25 10 0 14 6 10 15 -3
8 -1 15 5 15 5 0 12 -7 15 -15 5 -13 68 -15 480 -15 l474 0 -4 563 c-2 309 -4
569 -5 577 -1 8 0 128 2 265 3 138 5 285 6 328 0 42 3 77 6 77 3 0 4 -462 3
-1027z m1129 -505 c-1 -282 -2 -52 -2 512 0 564 1 794 2 513 2 -282 2 -744 0
-1025z m8047 1486 c-3 -86 -3 -87 -18 -75 -19 16 -26 59 -14 93 14 40 33 29
32 -18z m-3560 -123 c4 -5 -3 -7 -14 -4 -23 6 -39 -22 -22 -39 7 -7 19 -5 39
9 18 13 47 20 86 21 56 2 57 2 56 -25 l-1 -28 -8 25 -7 25 -11 -25 c-10 -24
-11 -24 -11 -2 -1 26 -21 31 -21 5 0 -13 -9 -19 -30 -20 -16 -1 -32 2 -35 7
-4 6 -13 5 -24 -2 -25 -16 -51 -3 -51 25 0 13 3 27 7 30 9 10 41 8 47 -2z
m290 -30 c1 -17 -1 -31 -6 -31 -4 0 -8 9 -8 20 0 11 -4 20 -10 20 -5 0 -10 -9
-10 -20 0 -16 -6 -20 -32 -18 -18 1 -41 -2 -50 -6 -15 -7 -18 -3 -18 23 0 29
3 31 35 31 28 0 35 -4 35 -20 0 -11 5 -20 10 -20 6 0 10 9 10 20 0 11 7 20 15
20 8 0 15 5 15 12 0 24 12 -2 14 -31z m180 30 c4 -5 -3 -7 -14 -4 -11 3 -20 1
-20 -5 0 -13 42 -23 55 -12 17 14 278 7 283 -7 2 -7 -5 -13 -15 -14 -16 0 -16
-1 2 -9 14 -5 6 -8 -28 -7 -26 0 -50 4 -54 10 -3 5 -9 3 -14 -4 -6 -10 -9 -8
-9 9 0 12 -4 22 -9 22 -5 0 -12 -10 -16 -22 -4 -14 -8 -18 -12 -10 -2 6 -14
12 -26 11 -21 0 -21 -1 -2 -8 13 -6 1 -8 -35 -7 -30 1 -60 5 -67 9 -6 4 -14 3
-18 -3 -8 -13 -42 -13 -50 0 -4 7 2 9 19 4 16 -4 26 -2 26 5 0 6 -6 11 -14 11
-17 0 -38 24 -29 33 9 10 41 8 47 -2z m396 0 c0 -5 -10 -7 -22 -4 -30 7 -12
-12 19 -22 18 -5 22 -3 17 8 -3 8 -1 18 5 22 6 3 11 1 11 -4 0 -6 6 -11 14
-11 8 0 17 -10 19 -22 l4 -23 8 22 c4 13 10 21 14 18 4 -2 19 2 34 10 20 10
27 11 27 2 0 -16 106 -13 126 4 12 9 14 5 14 -25 0 -35 -19 -53 -21 -18 0 14
-2 14 -9 -3 -8 -19 -9 -19 -9 3 -1 12 -5 22 -11 22 -5 0 -10 -10 -11 -22 0
-13 -3 -17 -6 -10 -2 6 -17 12 -31 11 -24 0 -25 -1 -7 -9 15 -6 8 -8 -25 -8
-25 0 -51 5 -57 10 -9 7 -13 7 -13 -1 0 -15 -67 -14 -74 2 -5 10 -7 10 -12 0
-7 -15 -40 -17 -48 -4 -4 5 3 7 14 4 11 -3 20 -1 20 5 0 5 -9 12 -20 15 -29 8
-26 37 5 37 14 0 25 -4 25 -9z m490 -26 c0 -34 -1 -35 -35 -32 -26 1 -35 7
-35 20 0 9 -4 17 -10 17 -5 0 -10 -8 -10 -17 0 -13 -9 -19 -35 -20 -26 -2 -35
1 -35 12 0 8 8 15 18 16 14 0 14 2 -3 9 -13 6 1 8 43 6 40 -2 68 2 80 10 23
18 22 19 22 -21z m163 28 c-27 -5 -31 -22 -5 -24 16 -1 16 -2 0 -6 -10 -2 -18
-11 -18 -19 0 -8 -4 -12 -10 -9 -5 3 -10 19 -10 36 0 26 3 29 33 28 23 -1 26
-3 10 -6z m187 -18 c0 -18 4 -23 16 -18 12 4 13 8 3 13 -7 5 46 8 117 7 71 0
123 -2 116 -5 -6 -2 -12 -12 -12 -23 0 -17 -7 -18 -69 -16 -60 2 -71 5 -76 22
-6 20 -6 19 -15 -2 -8 -19 -16 -21 -79 -21 -39 0 -73 4 -77 9 -3 5 -13 9 -22
8 -14 0 -13 -2 3 -9 19 -8 19 -9 -3 -9 -16 -1 -26 6 -29 19 -7 27 -21 25 -26
-2 -4 -20 -4 -19 -6 5 l-1 27 70 -3 c52 -2 70 1 70 10 0 7 5 13 10 13 6 0 10
-11 10 -25z m1860 15 c0 -5 -5 -10 -11 -10 -5 0 -7 5 -4 10 3 6 8 10 11 10 2
0 4 -4 4 -10z m-3194 -36 c-18 -39 -88 -29 -72 11 3 9 19 14 44 13 37 0 39 -1
28 -24z m1069 1 c0 -13 -8 -21 -22 -23 -16 -2 -23 2 -23 12 0 9 8 16 18 17 15
0 14 2 -3 10 -18 8 -18 8 5 6 18 -1 25 -8 25 -22z m-6317 -30 c72 -32 146
-105 188 -186 27 -50 29 -62 29 -166 0 -122 -10 -150 -42 -121 -10 9 -36 22
-58 29 -22 7 -44 17 -50 21 -5 4 -17 8 -26 8 -28 0 -31 34 -8 97 12 32 23 70
26 84 5 29 -12 125 -26 148 -14 22 -134 41 -182 29 -47 -12 -99 -58 -99 -87 0
-16 8 -21 38 -26 20 -4 43 -8 50 -10 14 -5 16 -35 2 -35 -5 0 -10 -7 -10 -15
0 -21 -87 -11 -120 13 -14 11 -49 21 -80 24 -30 3 -49 3 -42 1 20 -8 14 -22
-8 -16 -20 5 -31 -11 -45 -67 -4 -14 -27 -43 -52 -65 l-46 -40 7 55 c20 170
139 311 293 350 69 17 193 5 261 -25z m8497 -52 c25 -16 45 -32 45 -37 0 -15
-74 5 -97 27 -48 44 -16 50 52 10z m-525 -13 c6 -11 14 -44 17 -72 5 -39 3
-50 -7 -46 -19 6 -73 106 -66 123 8 22 44 18 56 -5z m-3076 -119 c4 -5 -4 -7
-16 -3 -14 3 -19 2 -14 -6 4 -7 14 -12 23 -12 22 0 8 -13 -16 -15 -13 -1 -17
5 -16 19 1 12 3 22 4 24 3 6 30 1 35 -7z m141 -16 c0 -16 -6 -19 -25 -17 -31
5 -34 7 -26 27 9 24 51 15 51 -10z m148 13 c7 -22 -4 -38 -28 -38 -27 0 -39
14 -31 35 7 18 53 20 59 3z m147 4 c0 -20 -28 -45 -44 -39 -21 8 -21 34 2 40
29 8 42 7 42 -1z m150 -17 c0 -21 -5 -25 -30 -25 -25 0 -30 4 -30 25 0 21 5
25 30 25 25 0 30 -4 30 -25z m-5719 -121 c7 -75 14 -91 45 -98 28 -7 28 -29 0
-34 -11 -2 -19 4 -23 17 -3 12 -13 21 -22 21 -29 0 -175 -28 -204 -39 -41 -16
-94 -14 -101 4 -8 22 95 106 154 125 27 8 60 25 73 36 55 48 71 42 78 -32z
m8371 43 c11 -18 10 -47 -3 -47 -6 0 -26 12 -45 27 -26 19 -32 28 -22 35 16
10 60 1 70 -15z m-8532 -22 c0 -8 -9 -15 -20 -15 -20 0 -26 11 -13 23 12 13
33 7 33 -8z m245 -23 c-2 -15 -4 -33 -4 -39 -2 -22 -18 -14 -23 10 -6 29 8 70
21 62 5 -3 8 -18 6 -33z m5 -82 c0 -5 -5 -10 -11 -10 -5 0 -7 5 -4 10 3 6 8
10 11 10 2 0 4 -4 4 -10z m5861 -45 c4 -3 6 -12 3 -20 -4 -9 -23 -13 -65 -13
-54 1 -59 3 -59 23 0 21 4 22 56 19 31 -3 60 -7 65 -9z m106 0 c7 -2 10 -11 7
-20 -4 -10 -20 -15 -50 -15 -36 0 -44 3 -44 18 0 10 2 21 5 24 6 6 62 1 82 -7z
m158 -15 c0 -12 -15 -16 -67 -18 -61 -3 -68 -1 -68 16 0 27 2 28 72 22 47 -4
63 -9 63 -20z m90 0 c0 -21 -5 -26 -32 -28 -29 -3 -33 0 -33 21 0 31 9 39 40
35 19 -2 25 -9 25 -28z m-7805 -5 c0 -8 -9 -15 -20 -15 -11 0 -20 7 -20 15 0
8 9 15 20 15 11 0 20 -7 20 -15z m60 0 c0 -8 -9 -15 -20 -15 -20 0 -26 11 -13
23 12 13 33 7 33 -8z m70 0 c0 -8 -9 -15 -20 -15 -11 0 -20 7 -20 15 0 8 9 15
20 15 11 0 20 -7 20 -15z m70 0 c0 -8 -9 -15 -20 -15 -11 0 -20 7 -20 15 0 8
9 15 20 15 11 0 20 -7 20 -15z m70 0 c0 -8 -9 -15 -20 -15 -11 0 -20 7 -20 15
0 8 9 15 20 15 11 0 20 -7 20 -15z m70 0 c0 -8 -9 -15 -20 -15 -11 0 -20 7
-20 15 0 8 9 15 20 15 11 0 20 -7 20 -15z m70 0 c0 -8 -9 -15 -20 -15 -11 0
-20 7 -20 15 0 8 9 15 20 15 11 0 20 -7 20 -15z m1225 -25 c28 -19 29 -20 7
-20 -28 0 -62 17 -62 30 0 16 23 11 55 -10z m-375 -16 c13 -33 13 -77 0 -69
-15 9 -50 82 -43 89 14 14 34 5 43 -20z m-1370 -24 c0 -13 -7 -20 -20 -20 -19
0 -27 20 -13 33 13 14 33 6 33 -13z m68 -3 c2 -12 -3 -17 -17 -17 -12 0 -21 6
-21 13 0 31 32 34 38 4z m70 0 c2 -12 -3 -17 -17 -17 -12 0 -21 6 -21 13 0 31
32 34 38 4z m70 0 c2 -12 -3 -17 -17 -17 -12 0 -21 6 -21 13 0 31 32 34 38 4z
m70 0 c2 -12 -3 -17 -17 -17 -15 0 -21 6 -21 21 0 25 33 22 38 -4z m70 0 c2
-12 -3 -17 -17 -17 -15 0 -21 6 -21 21 0 25 33 22 38 -4z m62 3 c0 -11 -7 -20
-15 -20 -8 0 -15 9 -15 20 0 11 7 20 15 20 8 0 15 -9 15 -20z m78 -3 c2 -12
-3 -17 -17 -17 -15 0 -21 6 -21 21 0 25 33 22 38 -4z m62 3 c0 -13 -7 -20 -20
-20 -19 0 -27 20 -13 33 13 14 33 6 33 -13z m296 8 c4 -5 -7 -8 -24 -8 -18 0
-32 4 -32 8 0 10 46 10 56 0z m124 -4 c0 -2 -9 -4 -20 -4 -11 0 -20 4 -20 9 0
5 9 7 20 4 11 -3 20 -7 20 -9z m115 6 c4 -6 -7 -10 -27 -9 -31 1 -32 1 -8 9
14 4 26 8 27 9 1 1 5 -3 8 -9z m-215 -50 c0 -5 -21 -9 -47 -8 l-48 1 45 7 c25
4 46 8 48 8 1 1 2 -2 2 -8z m25 0 c3 -5 1 -10 -4 -10 -6 0 -11 5 -11 10 0 6 2
10 4 10 3 0 8 -4 11 -10z m105 -2 c0 -4 -18 -8 -40 -8 -22 0 -40 3 -40 8 0 4
18 7 40 7 22 1 40 -3 40 -7z m83 -5 c-7 -2 -19 -2 -25 0 -7 3 -2 5 12 5 14 0
19 -2 13 -5z m-1083 -17 c0 -14 -29 -31 -38 -22 -2 3 -2 12 1 21 8 19 37 20
37 1z m485 -6 c0 -8 -8 -16 -17 -18 -13 -2 -18 3 -18 18 0 15 5 20 18 18 9 -2
17 -10 17 -18z m65 0 c0 -13 -7 -20 -20 -20 -19 0 -27 20 -13 33 13 14 33 6
33 -13z m-210 0 c0 -6 -33 -10 -80 -10 -47 0 -80 4 -80 10 0 6 33 10 80 10 47
0 80 -4 80 -10z m510 -14 c0 -3 -4 -8 -10 -11 -5 -3 -10 -1 -10 4 0 6 5 11 10
11 6 0 10 -2 10 -4z m50 -4 c0 -4 -9 -8 -20 -9 -11 -1 -20 2 -20 8 0 5 9 9 20
9 11 0 20 -4 20 -8z m90 -1 c0 -5 -9 -7 -20 -4 -11 3 -20 7 -20 9 0 2 9 4 20
4 11 0 20 -4 20 -9z m60 -1 c0 -5 -2 -10 -4 -10 -3 0 -8 5 -11 10 -3 6 -1 10
4 10 6 0 11 -4 11 -10z m40 6 c0 -11 -19 -15 -25 -6 -3 5 1 10 9 10 9 0 16 -2
16 -4z m390 -25 c0 -5 3 -17 7 -26 5 -15 3 -16 -13 -7 -10 6 -28 17 -39 26
-19 15 -19 15 13 16 17 0 32 -4 32 -9z m-580 -21 c0 -5 -5 -10 -11 -10 -5 0
-7 5 -4 10 3 6 8 10 11 10 2 0 4 -4 4 -10z m165 0 c3 -5 -1 -10 -10 -10 -9 0
-13 5 -10 10 3 6 8 10 10 10 2 0 7 -4 10 -10z m-77 -7 c-10 -2 -26 -2 -35 0
-10 3 -2 5 17 5 19 0 27 -2 18 -5z m42 -3 c0 -5 -2 -10 -4 -10 -3 0 -8 5 -11
10 -3 6 -1 10 4 10 6 0 11 -4 11 -10z m-115 -101 c5 -5 -7 -10 -33 -10 -23 -1
-48 -2 -54 -3 -7 -1 -14 7 -16 16 -3 14 4 16 45 12 26 -3 52 -10 58 -15z m143
4 c2 -9 -10 -13 -42 -13 -44 0 -61 12 -33 24 21 9 70 2 75 -11z m575 -92 c4
-1 7 -4 7 -9 0 -4 -13 -7 -30 -7 -16 -1 -30 4 -30 10 0 7 10 11 23 9 12 -1 25
-3 30 -3z m97 -12 c0 -5 -7 -9 -15 -9 -8 0 -15 7 -15 15 0 9 6 12 15 9 8 -4
15 -10 15 -15z m17 -1 c-3 -8 -6 -5 -6 6 -1 11 2 17 5 13 3 -3 4 -12 1 -19z
m29 -5 c-10 -10 -19 5 -10 18 6 11 8 11 12 0 2 -7 1 -15 -2 -18z m-373 -85 c3
-10 7 -10 18 -2 11 9 17 9 28 -3 11 -12 10 -14 -5 -11 -13 2 -20 -4 -22 -19
-5 -33 -15 -28 -28 12 -6 19 -8 35 -3 35 4 0 9 -6 12 -12z m337 0 c0 -4 7 -8
15 -8 8 0 15 -6 15 -14 0 -10 7 -12 22 -8 21 5 21 6 2 13 -18 7 -17 8 4 8 17
1 22 -5 22 -24 0 -22 -4 -24 -35 -23 -28 1 -35 5 -36 22 l-2 21 -4 -21 c-3
-16 -12 -21 -38 -22 -19 -1 -37 3 -40 7 -3 5 4 7 15 4 11 -3 20 0 20 6 0 6 -6
11 -14 11 -18 0 -29 16 -21 30 7 11 75 10 75 -2z m-228 -33 c-4 -21 -10 -25
-38 -25 -24 0 -34 5 -34 15 0 8 7 15 15 15 8 0 15 4 15 8 0 4 11 9 24 10 20 1
22 -2 18 -23z m58 0 c0 -18 -5 -25 -20 -25 -15 0 -20 7 -20 25 0 18 5 25 20
25 15 0 20 -7 20 -25z m58 -2 c2 -13 -1 -23 -7 -23 -5 0 -11 10 -14 23 -4 22
-4 22 -15 -3 l-11 -25 0 28 c-1 24 3 28 22 25 14 -2 23 -11 25 -25z m223 5 c1
-21 1 -22 7 -3 5 13 18 21 38 23 29 3 31 1 27 -22 -4 -21 -10 -26 -33 -24 -15
1 -35 -4 -44 -11 -14 -12 -16 -9 -16 23 0 39 19 51 21 14z m129 -3 c0 -18 -5
-25 -19 -25 -29 0 -37 20 -10 27 22 6 22 7 3 14 -18 7 -17 8 4 8 17 1 22 -5
22 -24z m-577 -115 c44 0 63 -12 35 -22 -22 -8 -108 4 -102 13 3 5 1 9 -5 9
-5 0 -12 -6 -14 -12 -3 -8 -6 -5 -6 6 -1 14 4 17 22 12 12 -3 43 -6 70 -6z
m121 -11 c-7 -11 -64 -12 -64 -1 0 15 9 19 40 14 16 -2 27 -8 24 -13z m46 14
c0 -5 34 -7 75 -5 48 2 75 0 75 -7 0 -16 -162 -10 -168 7 -2 6 1 12 7 12 6 0
11 -3 11 -7z m345 -14 c5 -5 -28 -9 -78 -9 -69 0 -87 3 -87 14 0 12 15 13 78
9 42 -3 81 -9 87 -14z m95 6 c0 -11 -11 -15 -40 -15 -51 0 -53 17 -2 23 20 2
38 4 40 5 1 1 2 -5 2 -13z m50 -5 c0 -5 -7 -10 -15 -10 -8 0 -15 5 -15 10 0 6
7 10 15 10 8 0 15 -4 15 -10z m-486 -65 c-4 -8 -8 -15 -10 -15 -2 0 -4 7 -4
15 0 8 4 15 10 15 5 0 7 -7 4 -15z m226 -2 c0 -11 -22 -14 -105 -12 -75 1
-105 5 -105 14 0 9 28 12 105 12 82 -1 105 -4 105 -14z m-230 -93 c0 -5 -7
-10 -15 -10 -8 0 -15 5 -15 10 0 6 7 10 15 10 8 0 15 -4 15 -10z m60 0 c0 -5
-7 -10 -15 -10 -8 0 -15 5 -15 10 0 6 7 10 15 10 8 0 15 -4 15 -10z m70 1 c0
-11 -26 -22 -34 -14 -12 12 -5 23 14 23 11 0 20 -4 20 -9z m60 -1 c0 -5 -7
-10 -15 -10 -8 0 -15 5 -15 10 0 6 7 10 15 10 8 0 15 -4 15 -10z m65 0 c-3 -5
-13 -10 -21 -10 -8 0 -14 5 -14 10 0 6 9 10 21 10 11 0 17 -4 14 -10z m-1075
-55 c0 -22 -4 -25 -35 -25 -21 0 -35 5 -35 13 0 8 -2 9 -8 1 -12 -19 -60 -14
-65 8 -5 17 0 18 47 15 28 -2 60 0 71 4 11 4 21 8 23 8 1 1 2 -10 2 -24z m27
-17 c-3 -7 -5 -2 -5 12 0 14 2 19 5 13 2 -7 2 -19 0 -25z m95 18 c11 -17 -2
-26 -38 -26 -32 0 -45 16 -28 33 10 10 58 4 66 -7z m1093 -86 c0 -8 -8 -15
-17 -14 -10 0 -65 1 -123 2 -117 2 -144 19 -37 24 142 6 177 4 177 -12z m9003
-77 c-16 -2 -40 -2 -55 0 -16 2 -3 4 27 4 30 0 43 -2 28 -4z m-2250 -198 c-3
-3 -9 2 -12 12 -6 14 -5 15 5 6 7 -7 10 -15 7 -18z m129 -12 c-3 -10 -5 -4 -5
12 0 17 2 24 5 18 2 -7 2 -21 0 -30z m39 -10 c-10 -10 -19 5 -10 18 6 11 8 11
12 0 2 -7 1 -15 -2 -18z m-8079 -65 c-3 -8 -6 -5 -6 6 -1 11 2 17 5 13 3 -3 4
-12 1 -19z m8633 -7 c0 -28 -52 -31 -585 -31 -533 0 -585 3 -585 31 0 18 21
19 585 19 564 0 585 -1 585 -19z m-8303 -33 c-3 -8 -6 -5 -6 6 -1 11 2 17 5
13 3 -3 4 -12 1 -19z m-20 -20 c-3 -8 -6 -5 -6 6 -1 11 2 17 5 13 3 -3 4 -12
1 -19z"/>
<path d="M7380 4510 c0 -11 5 -20 10 -20 6 0 10 9 10 20 0 11 -4 20 -10 20 -5
0 -10 -9 -10 -20z"/>
<path d="M2873 4873 c-7 -2 -13 -11 -13 -20 0 -21 44 -13 48 10 3 17 -10 21
-35 10z"/>
<path d="M3357 4873 c-14 -13 -6 -33 12 -33 16 0 31 18 31 36 0 7 -36 5 -43
-3z"/>
<path d="M3544 4906 c-3 -9 -3 -28 0 -42 5 -19 12 -25 29 -22 18 2 22 9 22 38
0 29 -4 36 -23 38 -13 2 -25 -3 -28 -12z"/>
<path d="M4123 4873 c-7 -2 -13 -11 -13 -20 0 -21 44 -13 48 10 3 17 -10 21
-35 10z"/>
<path d="M4240 4900 c-13 -24 2 -60 25 -60 16 0 30 42 21 65 -8 21 -33 19 -46
-5z"/>
<path d="M4480 4870 c-11 -7 -12 -12 -3 -21 15 -15 43 -5 43 16 0 17 -18 19
-40 5z"/>
<path d="M3665 4561 c-3 -5 -1 -12 5 -16 5 -3 10 1 10 9 0 18 -6 21 -15 7z"/>
<path d="M3750 4555 c0 -8 5 -15 10 -15 6 0 10 7 10 15 0 8 -4 15 -10 15 -5 0
-10 -7 -10 -15z"/>
<path d="M3818 4543 c6 -2 18 -2 25 0 6 3 1 5 -13 5 -14 0 -19 -2 -12 -5z"/>
<path d="M4090 4555 c0 -8 5 -15 10 -15 6 0 10 7 10 15 0 8 -4 15 -10 15 -5 0
-10 -7 -10 -15z"/>
<path d="M4475 4560 c-8 -13 5 -13 25 0 13 8 13 10 -2 10 -9 0 -20 -4 -23 -10z"/>
<path d="M2800 4555 c0 -8 5 -15 10 -15 6 0 10 7 10 15 0 8 -4 15 -10 15 -5 0
-10 -7 -10 -15z"/>
<path d="M2940 4555 c0 -8 5 -15 10 -15 6 0 10 7 10 15 0 8 -4 15 -10 15 -5 0
-10 -7 -10 -15z"/>
<path d="M3270 4555 c0 -17 9 -19 28 -6 11 7 10 10 -3 15 -23 9 -25 8 -25 -9z"/>
<path d="M3460 4555 c0 -9 5 -15 11 -13 6 2 11 8 11 13 0 5 -5 11 -11 13 -6 2
-11 -4 -11 -13z"/>
<path d="M4610 4555 c0 -9 5 -15 11 -13 6 2 11 8 11 13 0 5 -5 11 -11 13 -6 2
-11 -4 -11 -13z"/>
<path d="M3375 4320 c4 -6 11 -8 16 -5 14 9 11 15 -7 15 -8 0 -12 -5 -9 -10z"/>
<path d="M1600 3215 c0 -14 5 -25 10 -25 6 0 10 11 10 25 0 14 -4 25 -10 25
-5 0 -10 -11 -10 -25z"/>
<path d="M910 3200 c0 -5 5 -10 10 -10 6 0 10 5 10 10 0 6 -4 10 -10 10 -5 0
-10 -4 -10 -10z"/>
<path d="M1254 3226 c-4 -10 -2 -22 4 -28 8 -8 13 -7 18 6 4 10 2 22 -4 28 -8
8 -13 7 -18 -6z"/>
<path d="M1160 3199 c0 -5 5 -7 10 -4 6 3 10 8 10 11 0 2 -4 4 -10 4 -5 0 -10
-5 -10 -11z"/>
<path d="M1720 3199 c0 -5 5 -7 10 -4 6 3 10 8 10 11 0 2 -4 4 -10 4 -5 0 -10
-5 -10 -11z"/>
<path d="M11721 2524 c0 -11 3 -14 6 -6 3 7 2 16 -1 19 -3 4 -6 -2 -5 -13z"/>
<path d="M7853 2785 c-3 -9 -2 -19 1 -23 8 -8 38 10 44 26 6 18 -38 14 -45 -3z"/>
<path d="M8340 2785 c-10 -12 -9 -16 4 -21 16 -6 46 11 46 27 0 15 -37 10 -50
-6z"/>
<path d="M8525 2820 c-8 -24 10 -60 30 -60 23 0 38 36 25 60 -14 26 -47 26
-55 0z"/>
<path d="M9113 2793 c-17 -6 -17 -33 0 -33 14 0 37 20 37 32 0 9 -18 9 -37 1z"/>
<path d="M9224 2826 c-11 -28 0 -61 21 -61 16 0 20 7 20 35 0 25 -5 36 -18 38
-9 2 -20 -3 -23 -12z"/>
<path d="M9473 2793 c-7 -2 -13 -11 -13 -20 0 -21 44 -13 48 10 3 17 -10 21
-35 10z"/>
<path d="M3100 2744 c0 -10 7 -14 22 -12 32 5 35 28 4 28 -17 0 -26 -5 -26
-16z"/>
<path d="M7785 2501 c-6 -11 9 -23 19 -14 9 9 7 23 -3 23 -6 0 -12 -4 -16 -9z"/>
<path d="M7930 2494 c0 -8 5 -12 10 -9 6 3 10 10 10 16 0 5 -4 9 -10 9 -5 0
-10 -7 -10 -16z"/>
<path d="M8257 2504 c-11 -11 3 -24 18 -18 8 4 12 10 9 15 -6 11 -18 12 -27 3z"/>
<path d="M8445 2500 c-8 -13 9 -20 24 -11 10 6 9 10 -3 14 -8 3 -18 2 -21 -3z"/>
<path d="M8730 2501 c0 -6 5 -13 10 -16 6 -3 10 1 10 9 0 9 -4 16 -10 16 -5 0
-10 -4 -10 -9z"/>
<path d="M9080 2494 c0 -8 5 -12 10 -9 6 4 8 11 5 16 -9 14 -15 11 -15 -7z"/>
<path d="M9595 2500 c-8 -13 9 -20 24 -11 10 6 9 10 -3 14 -8 3 -18 2 -21 -3z"/>
<path d="M9408 2483 c6 -2 18 -2 25 0 6 3 1 5 -13 5 -14 0 -19 -2 -12 -5z"/>
<path d="M9658 2483 c6 -2 18 -2 25 0 6 3 1 5 -13 5 -14 0 -19 -2 -12 -5z"/>
<path d="M8078 2483 c6 -2 18 -2 25 0 6 3 1 5 -13 5 -14 0 -19 -2 -12 -5z"/>
<path d="M8025 2269 c-10 -15 3 -25 16 -12 7 7 7 13 1 17 -6 3 -14 1 -17 -5z"/>
<path d="M8318 2268 c9 -9 15 -9 24 0 9 9 7 12 -12 12 -19 0 -21 -3 -12 -12z"/>
<path d="M2710 1491 c0 -5 9 -11 20 -14 24 -6 27 8 4 17 -21 8 -24 8 -24 -3z"/>
<path d="M2570 1465 c0 -8 5 -15 10 -15 6 0 10 7 10 15 0 8 -4 15 -10 15 -5 0
-10 -7 -10 -15z"/>
<path d="M5336 2328 c-34 -31 -44 -68 -18 -68 25 0 62 41 62 68 0 28 -12 28
-44 0z"/>
<path d="M5210 2247 c-60 -30 -72 -114 -28 -205 28 -60 59 -78 99 -62 25 11
38 11 66 1 32 -12 37 -11 60 11 14 12 31 35 39 50 13 25 12 29 -11 52 -31 31
-33 74 -4 110 l20 26 -35 17 c-29 13 -42 14 -72 5 -23 -7 -45 -7 -61 -1 -32
12 -43 11 -73 -4z"/>
<path d="M3295 1390 c0 -371 1 -523 2 -338 2 186 2 490 0 675 -1 186 -2 34 -2
-337z"/>
<path d="M4090 1026 c0 -4 8 -15 17 -24 15 -16 106 -17 1205 -17 1046 0 1190
2 1198 15 18 28 11 33 -37 24 -62 -12 -2262 -12 -2330 0 -29 5 -53 6 -53 2z"/>
<path d="M3293 675 c0 -22 2 -30 4 -17 2 12 2 30 0 40 -3 9 -5 -1 -4 -23z"/>
</g>
</svg>
