<?xml version="1.0" standalone="no"?>
<!DOCTYPE svg PUBLIC "-//W3C//DTD SVG 20010904//EN"
 "http://www.w3.org/TR/2001/REC-SVG-20010904/DTD/svg10.dtd">
<svg version="1.0" xmlns="http://www.w3.org/2000/svg"
 width="1304.000000pt" height="659.000000pt" viewBox="0 0 1304.000000 659.000000"
 preserveAspectRatio="xMidYMid meet">

<g transform="translate(0.000000,659.000000) scale(0.100000,-0.100000)"
fill="#000000" stroke="none">
<path d="M2117 6279 c-87 -11 -140 -39 -174 -91 l-28 -42 -3 -1153 -2 -1153
140 0 140 0 0 975 0 975 3005 0 3005 0 0 -875 0 -875 155 0 155 0 -1 363 c-1
199 -4 668 -8 1043 l-6 680 -27 42 c-53 79 -10 74 -640 74 -310 0 -568 -1
-575 -1 -7 -1 -24 -21 -39 -46 -38 -66 -40 -55 -2 15 l33 60 505 0 c330 0 500
4 490 10 -19 12 -6027 11 -6123 -1z m80 -311 c-3 -8 -6 -5 -6 6 -1 11 2 17 5
13 3 -3 4 -12 1 -19z m133 -72 c20 -4 47 -3 62 3 19 7 29 7 34 0 3 -6 19 -9
35 -7 19 3 29 0 29 -8 0 -17 -212 -17 -222 0 -17 25 -7 27 62 12z m255 -1 c22
1 48 -2 58 -7 10 -5 17 -5 17 0 0 13 43 9 47 -4 6 -17 -168 -19 -178 -2 -13
20 -11 32 4 21 6 -5 30 -9 52 -8z"/>
<path d="M3522 5655 c0 -34 2 -42 7 -26 9 35 29 37 34 4 4 -26 4 -25 6 6 1 28
-2 33 -18 28 -15 -3 -21 1 -24 17 -2 11 -4 -1 -5 -29z"/>
<path d="M3603 5650 c0 -30 2 -43 4 -27 2 15 2 39 0 55 -2 15 -4 2 -4 -28z"/>
<path d="M3310 5645 c0 -37 3 -45 18 -45 23 0 52 30 52 53 0 17 -29 37 -54 37
-12 0 -16 -11 -16 -45z m53 13 c8 -12 7 -21 -2 -32 -23 -28 -41 -19 -41 20 0
28 4 35 16 32 9 -2 22 -10 27 -20z"/>
<path d="M3420 5660 c13 -9 13 -12 -2 -21 -19 -11 -25 -39 -8 -39 5 0 7 7 4
15 -4 8 -2 15 4 15 6 0 13 -6 15 -12 3 -7 6 2 6 20 1 24 -3 32 -16 32 -16 0
-16 -2 -3 -10z"/>
<path d="M3464 5658 c-4 -6 1 -17 12 -25 16 -12 17 -15 4 -23 -9 -6 -10 -10
-3 -10 21 0 25 21 8 40 -15 17 -15 19 2 23 15 4 16 5 1 6 -9 0 -20 -4 -24 -11z"/>
<path d="M3630 5663 c5 -2 10 -15 10 -28 0 -13 -5 -26 -10 -28 -6 -3 -5 -4 2
-3 7 2 13 15 13 31 0 16 -6 29 -13 31 -7 1 -8 0 -2 -3z"/>
<path d="M3680 5655 c-15 -18 -4 -46 21 -53 8 -2 5 2 -5 10 -12 9 -17 21 -13
32 9 24 35 20 40 -6 5 -20 5 -20 4 2 -2 29 -28 38 -47 15z"/>
<path d="M3770 5660 c13 -9 13 -12 -2 -21 -19 -11 -25 -39 -8 -39 5 0 7 7 4
15 -4 8 -2 15 4 15 6 0 13 -6 15 -12 3 -7 6 2 6 20 1 24 -3 32 -16 32 -16 0
-16 -2 -3 -10z"/>
<path d="M3815 5660 c-3 -5 -1 -10 4 -10 6 0 11 5 11 10 0 6 -2 10 -4 10 -3 0
-8 -4 -11 -10z"/>
<path d="M3864 5656 c-8 -22 -1 -49 14 -52 7 -1 8 0 2 3 -5 2 -10 16 -10 30 0
20 4 24 20 20 11 -3 20 -1 20 4 0 15 -40 10 -46 -5z"/>
<path d="M2286 5652 c-3 -5 1 -9 9 -9 8 0 15 4 15 9 0 4 -4 8 -9 8 -6 0 -12
-4 -15 -8z"/>
<path d="M5140 5345 c0 -25 1 -25 85 -25 84 0 85 0 85 25 0 25 -1 25 -85 25
-84 0 -85 0 -85 -25z"/>
<path d="M5630 5345 c0 -25 1 -25 85 -25 84 0 85 0 85 25 0 25 -1 25 -85 25
-84 0 -85 0 -85 -25z"/>
<path d="M7648 5263 c12 -2 30 -2 40 0 9 3 -1 5 -23 4 -22 0 -30 -2 -17 -4z"/>
<path d="M7828 5263 c28 -2 76 -2 105 0 28 2 5 3 -53 3 -58 0 -81 -1 -52 -3z"/>
<path d="M7539 5213 l-24 -28 28 24 c15 14 27 26 27 28 0 8 -8 1 -31 -24z"/>
<path d="M7494 5158 l-19 -23 23 19 c21 18 27 26 19 26 -2 0 -12 -10 -23 -22z"/>
<path d="M3345 5150 c3 -5 8 -10 11 -10 2 0 4 5 4 10 0 6 -5 10 -11 10 -5 0
-7 -4 -4 -10z"/>
<path d="M7398 5133 c12 -2 32 -2 45 0 12 2 2 4 -23 4 -25 0 -35 -2 -22 -4z"/>
<path d="M7690 5110 c14 -4 36 -8 50 -8 22 0 22 1 -5 8 -16 4 -39 8 -50 8 -16
0 -15 -2 5 -8z"/>
<path d="M7786 5110 c12 -5 25 -13 29 -19 4 -7 40 -10 93 -9 l87 2 -79 3 c-48
3 -87 10 -100 18 -11 8 -27 15 -36 14 -9 0 -7 -4 6 -9z"/>
<path d="M7565 5098 c-16 -6 -46 -23 -65 -38 -53 -40 -56 -41 -82 -20 -25 19
-26 19 -78 -1 -29 -11 -62 -31 -72 -45 -11 -13 -27 -24 -36 -25 -12 0 -13 -2
-4 -6 8 -3 28 8 45 25 18 16 53 36 79 45 44 14 47 14 64 -4 22 -25 30 -24 68
8 17 14 54 36 81 49 52 24 52 30 0 12z"/>
<path d="M7630 5100 c0 -5 7 -7 15 -4 8 4 15 8 15 10 0 2 -7 4 -15 4 -8 0 -15
-4 -15 -10z"/>
<path d="M7300 5090 c-9 -6 -10 -10 -3 -10 6 0 15 5 18 10 8 12 4 12 -15 0z"/>
<path d="M3324 5068 c-19 -23 -19 -23 2 -5 11 9 24 14 27 10 4 -3 7 -1 7 5 0
19 -15 14 -36 -10z"/>
<path d="M3366 5068 c-3 -13 -5 -32 -5 -43 1 -11 5 -2 10 19 10 42 6 62 -5 24z"/>
<path d="M7208 5083 c12 -2 30 -2 40 0 9 3 -1 5 -23 4 -22 0 -30 -2 -17 -4z"/>
<path d="M6808 5033 c12 -2 30 -2 40 0 9 3 -1 5 -23 4 -22 0 -30 -2 -17 -4z"/>
<path d="M6648 5013 c7 -3 16 -2 19 1 4 3 -2 6 -13 5 -11 0 -14 -3 -6 -6z"/>
<path d="M6698 5013 c7 -3 16 -2 19 1 4 3 -2 6 -13 5 -11 0 -14 -3 -6 -6z"/>
<path d="M3371 4958 c1 -37 2 -39 9 -18 12 36 12 60 0 60 -5 0 -10 -19 -9 -42z"/>
<path d="M5913 4983 c59 -2 154 -2 210 0 56 1 8 3 -108 3 -115 0 -161 -2 -102
-3z"/>
<path d="M7164 4935 l-40 -45 -87 0 c-69 0 -93 -4 -119 -20 -20 -12 -26 -20
-17 -20 9 0 22 7 29 15 9 11 35 15 99 16 47 0 94 3 103 7 13 6 85 92 75 92 -1
0 -20 -20 -43 -45z"/>
<path d="M5693 4963 c15 -2 39 -2 55 0 15 2 2 4 -28 4 -30 0 -43 -2 -27 -4z"/>
<path d="M5418 4933 c7 -3 16 -2 19 1 4 3 -2 6 -13 5 -11 0 -14 -3 -6 -6z"/>
<path d="M5468 4933 c12 -2 32 -2 45 0 12 2 2 4 -23 4 -25 0 -35 -2 -22 -4z"/>
<path d="M3391 4914 c0 -11 3 -14 6 -6 3 7 2 16 -1 19 -3 4 -6 -2 -5 -13z"/>
<path d="M5295 4858 l-40 -43 43 40 c23 21 42 40 42 42 0 8 -9 0 -45 -39z"/>
<path d="M3383 4840 c0 -30 2 -43 4 -27 2 15 2 39 0 55 -2 15 -4 2 -4 -28z"/>
<path d="M6775 4840 c-20 -14 -39 -18 -57 -14 -17 3 -28 1 -28 -5 0 -17 53
-13 80 6 13 10 43 20 65 24 l40 6 -35 2 c-20 0 -48 -8 -65 -19z"/>
<path d="M6595 4820 c-11 -4 -189 -8 -395 -9 -353 -1 -405 -4 -505 -31 -22 -6
-17 -7 20 -3 28 2 61 9 75 14 14 5 204 10 422 11 218 2 400 6 404 11 12 11 1
15 -21 7z"/>
<path d="M6640 4820 c0 -5 7 -10 15 -10 8 0 15 5 15 10 0 6 -7 10 -15 10 -8 0
-15 -4 -15 -10z"/>
<path d="M4528 4783 c7 -3 16 -2 19 1 4 3 -2 6 -13 5 -11 0 -14 -3 -6 -6z"/>
<path d="M4570 4776 c0 -2 7 -7 16 -10 8 -3 12 -2 9 4 -6 10 -25 14 -25 6z"/>
<path d="M5560 4754 c-38 -14 -51 -21 -31 -18 34 6 125 43 106 43 -5 -1 -39
-11 -75 -25z"/>
<path d="M4720 4766 c0 -2 8 -10 18 -17 15 -13 16 -12 3 4 -13 16 -21 21 -21
13z"/>
<path d="M3393 4725 c0 -22 2 -30 4 -17 2 12 2 30 0 40 -3 9 -5 -1 -4 -23z"/>
<path d="M4425 4750 c-3 -6 1 -7 9 -4 18 7 21 14 7 14 -6 0 -13 -4 -16 -10z"/>
<path d="M4628 4753 c7 -3 16 -2 19 1 4 3 -2 6 -13 5 -11 0 -14 -3 -6 -6z"/>
<path d="M4870 4756 c0 -2 7 -9 15 -16 13 -11 14 -10 9 4 -5 14 -24 23 -24 12z"/>
<path d="M4389 4723 c-13 -16 -12 -17 4 -4 9 7 17 15 17 17 0 8 -8 3 -21 -13z"/>
<path d="M5450 4710 c-14 -11 -32 -20 -40 -21 -10 0 -11 -2 -3 -5 7 -3 29 6
50 20 21 14 33 26 28 26 -6 0 -21 -9 -35 -20z"/>
<path d="M3440 4715 c0 -5 5 -17 10 -25 5 -8 10 -10 10 -5 0 6 -5 17 -10 25
-5 8 -10 11 -10 5z"/>
<path d="M4901 4684 c0 -11 3 -14 6 -6 3 7 2 16 -1 19 -3 4 -6 -2 -5 -13z"/>
<path d="M5020 4686 c0 -2 7 -7 16 -10 8 -3 12 -2 9 4 -6 10 -25 14 -25 6z"/>
<path d="M5116 4682 c-2 -4 4 -8 14 -8 10 0 16 4 14 8 -3 4 -9 8 -14 8 -5 0
-11 -4 -14 -8z"/>
<path d="M3401 4659 c0 -13 4 -33 9 -44 7 -14 8 -8 3 20 -7 46 -13 59 -12 24z"/>
<path d="M5344 4648 c-69 -75 -144 -190 -144 -220 0 -7 11 10 24 37 13 28 29
57 37 65 8 8 34 41 58 73 24 32 51 62 60 67 9 5 11 10 5 10 -5 0 -24 -15 -40
-32z"/>
<path d="M4979 4643 c-13 -16 -12 -17 4 -4 9 7 17 15 17 17 0 8 -8 3 -21 -13z"/>
<path d="M5166 4638 c3 -5 10 -6 15 -3 13 9 11 12 -6 12 -8 0 -12 -4 -9 -9z"/>
<path d="M5070 4626 c7 -7 13 -7 20 0 6 6 3 10 -10 10 -13 0 -16 -4 -10 -10z"/>
<path d="M4927 4609 c7 -7 15 -10 18 -7 3 3 -2 9 -12 12 -14 6 -15 5 -6 -5z"/>
<path d="M4285 4590 c-3 -6 1 -7 9 -4 18 7 21 14 7 14 -6 0 -13 -4 -16 -10z"/>
<path d="M3426 4570 c3 -14 15 -43 25 -65 10 -22 16 -29 12 -15 -3 14 -14 43
-24 65 -11 22 -16 29 -13 15z"/>
<path d="M3936 4582 c-2 -4 4 -8 14 -8 10 0 16 4 14 8 -3 4 -9 8 -14 8 -5 0
-11 -4 -14 -8z"/>
<path d="M3980 4536 c0 -2 8 -10 18 -17 15 -13 16 -12 3 4 -13 16 -21 21 -21
13z"/>
<path d="M3570 4465 c19 -19 36 -35 39 -35 3 0 -10 16 -29 35 -19 19 -36 35
-39 35 -3 0 10 -16 29 -35z"/>
<path d="M3890 4480 c-9 -6 -10 -10 -3 -10 6 0 15 5 18 10 8 12 4 12 -15 0z"/>
<path d="M4040 4476 c0 -2 8 -10 18 -17 15 -13 16 -12 3 4 -13 16 -21 21 -21
13z"/>
<path d="M3470 4457 c0 -22 60 -126 99 -169 62 -69 77 -75 113 -48 17 12 54
26 82 31 l51 8 -51 -3 c-33 -2 -61 -10 -81 -25 -24 -18 -35 -21 -49 -13 -37
20 -85 80 -124 153 -22 41 -40 70 -40 66z"/>
<path d="M4483 4388 l-43 -42 -28 27 c-37 36 -100 37 -157 2 -22 -14 -34 -25
-27 -25 8 0 25 9 39 20 39 30 115 28 141 -5 11 -14 24 -25 29 -25 5 0 27 18
48 40 21 22 42 40 47 40 4 0 24 -11 44 -25 46 -32 61 -31 87 1 l20 26 19 -23
19 -24 -12 28 c-15 34 -26 34 -51 2 -11 -14 -25 -25 -32 -25 -7 0 -30 11 -50
25 -20 14 -40 25 -44 25 -4 0 -26 -19 -49 -42z"/>
<path d="M4851 4394 c-21 -35 -23 -36 -75 -32 -30 1 -52 0 -49 -4 2 -5 29 -8
58 -8 50 0 56 2 70 30 9 17 20 30 25 30 6 0 10 5 10 10 0 21 -19 9 -39 -26z"/>
<path d="M5179 4378 c-7 -18 -25 -49 -41 -68 -15 -19 -28 -38 -28 -43 0 -14
70 82 81 110 14 38 4 39 -12 1z"/>
<path d="M3938 4386 c-8 -8 -21 -28 -28 -45 -9 -23 -22 -33 -52 -42 -22 -5
-38 -12 -36 -14 2 -3 21 0 41 6 28 8 42 19 57 49 11 22 25 40 31 40 6 0 28
-13 49 -30 23 -18 50 -30 68 -30 16 0 35 -7 42 -15 19 -23 39 -18 70 15 15 17
24 30 20 30 -5 0 -18 -12 -29 -26 -15 -19 -26 -24 -41 -19 -11 3 -20 11 -20
16 0 5 -16 9 -36 9 -26 0 -47 9 -79 35 -37 31 -45 34 -57 21z"/>
<path d="M4891 4384 c0 -11 3 -14 6 -6 3 7 2 16 -1 19 -3 4 -6 -2 -5 -13z"/>
<path d="M4902 4335 c0 -16 2 -22 5 -12 2 9 2 23 0 30 -3 6 -5 -1 -5 -18z"/>
<path d="M4971 4269 c-26 -28 -40 -37 -44 -27 -4 8 -6 9 -6 1 -2 -28 21 -21
55 17 20 22 40 40 45 40 5 0 15 -12 23 -27 18 -33 21 -25 4 12 -16 35 -31 32
-77 -16z"/>
<path d="M4912 4280 c0 -14 2 -19 5 -12 2 6 2 18 0 25 -3 6 -5 1 -5 -13z"/>
<path d="M5093 4232 c-11 -15 -13 -15 -23 -2 -10 13 -11 13 -7 0 5 -21 33 -24
41 -4 9 23 3 27 -11 6z"/>
<path d="M7297 4015 c-45 -15 -82 -47 -105 -90 -15 -27 -17 -99 -20 -702 l-3
-673 -1989 0 -1990 0 -27 31 c-16 17 -40 37 -55 45 -28 14 -52 19 -31 6 10 -6
-216 -6 -744 1 -114 1 -189 -2 -185 -7 3 -5 -2 -6 -12 -3 -9 4 -28 0 -42 -10
-58 -37 -55 19 -56 -1131 -1 -581 -4 -1011 -5 -954 l-4 102 -724 0 -725 0 0
1395 0 1395 1085 0 1085 0 0 -385 0 -385 74 0 73 0 8 508 c4 280 4 527 0 550
-5 30 -19 54 -51 86 -38 39 -50 45 -101 52 -32 4 -127 1 -213 -6 -136 -11
-1052 -9 -1895 3 -109 2 -175 -12 -175 -36 0 -6 -10 -21 -21 -33 l-22 -23 1
-1653 c1 -1647 1 -1653 21 -1699 29 -65 56 -74 211 -72 69 1 408 5 754 8 l629
6 29 -21 c17 -12 42 -25 56 -28 15 -3 240 -7 500 -8 344 -2 471 0 466 8 -4 7
-3 8 4 4 7 -4 21 -1 33 8 52 36 50 -25 51 1123 1 587 5 974 8 858 4 -136 6
-172 8 -102 l2 107 1985 0 1985 0 0 -872 c0 -574 4 -886 11 -910 l10 -38 989
0 c873 0 990 -2 990 -15 0 -13 -147 -15 -1264 -15 -1114 0 -1265 2 -1270 15
-7 20 -56 20 -56 0 0 -28 126 -54 390 -79 133 -13 539 -16 2830 -18 l2675 -3
170 23 c265 35 345 53 345 78 0 19 -49 18 -56 -1 -5 -13 -156 -15 -1270 -15
-1115 0 -1264 2 -1264 15 0 13 119 15 992 17 l992 3 7 25 c12 44 10 3350 -2
3395 -14 51 -73 110 -124 124 -29 8 -731 11 -2485 11 -2045 -1 -2451 -3 -2483
-15z m80 -267 c-3 -8 -6 -5 -6 6 -1 11 2 17 5 13 3 -3 4 -12 1 -19z m133 -72
c20 -4 47 -3 62 3 19 7 29 7 34 0 3 -6 19 -9 35 -7 19 3 29 0 29 -8 0 -17
-212 -17 -222 0 -17 25 -7 27 62 12z m255 -1 c22 1 48 -2 58 -7 10 -5 17 -5
17 0 0 13 43 9 47 -4 6 -17 -168 -19 -178 -2 -13 20 -11 32 4 21 6 -5 30 -9
52 -8z m4445 -1514 l0 -1410 -152 -3 c-84 -2 -1173 -2 -2420 0 l-2268 2 0
1410 0 1410 2420 0 2420 0 0 -1409z m-11480 1299 c0 -5 -25 -10 -55 -10 -30 0
-55 5 -55 10 0 6 25 10 55 10 30 0 55 -4 55 -10z m110 0 c0 -5 -20 -10 -45
-10 -25 0 -45 5 -45 10 0 6 20 10 45 10 25 0 45 -4 45 -10z m1480 -900 c0 -12
11 -32 25 -45 l24 -25 244 0 c231 0 244 1 265 20 12 11 25 32 28 45 6 24 10
25 81 25 72 0 76 -1 109 -34 19 -19 34 -43 34 -55 l0 -21 -519 0 -520 0 10 33
c5 17 20 42 34 55 22 19 37 22 106 22 73 0 79 -2 79 -20z m-253 -72 c-3 -8 -6
-5 -6 6 -1 11 2 17 5 13 3 -3 4 -12 1 -19z m1100 -1540 c-1 -282 -2 -52 -2
512 0 564 1 794 2 513 2 -282 2 -744 0 -1025z m-927 1462 c0 -5 -25 -10 -55
-10 -30 0 -55 5 -55 10 0 6 25 10 55 10 30 0 55 -4 55 -10z m110 0 c0 -5 -20
-10 -45 -10 -25 0 -45 5 -45 10 0 6 20 10 45 10 25 0 45 -4 45 -10z m730 0 c0
-5 -7 -10 -16 -10 -8 0 -12 5 -9 10 3 6 10 10 16 10 5 0 9 -4 9 -10z m50 -160
c0 -73 -4 -120 -10 -120 -5 0 -10 -5 -10 -11 0 -5 4 -7 10 -4 5 3 9 -9 8 -30
-1 -20 -5 -38 -10 -41 -4 -3 -8 -10 -8 -15 0 -6 4 -7 10 -4 6 4 10 -279 10
-805 l0 -810 -34 -38 -34 -37 -451 0 -451 0 -32 33 -33 32 -3 985 -2 985 520
0 520 0 0 -120z m6518 -1705 c-3 -3 -9 2 -12 12 -6 14 -5 15 5 6 7 -7 10 -15
7 -18z m129 -12 c-3 -10 -5 -4 -5 12 0 17 2 24 5 18 2 -7 2 -21 0 -30z m39
-10 c-10 -10 -19 5 -10 18 6 11 8 11 12 0 2 -7 1 -15 -2 -18z m-8079 -65 c-3
-8 -6 -5 -6 6 -1 11 2 17 5 13 3 -3 4 -12 1 -19z m8633 -7 c0 -28 -52 -31
-585 -31 -533 0 -585 3 -585 31 0 18 21 19 585 19 564 0 585 -1 585 -19z
m-8303 -33 c-3 -8 -6 -5 -6 6 -1 11 2 17 5 13 3 -3 4 -12 1 -19z m-20 -20 c-3
-8 -6 -5 -6 6 -1 11 2 17 5 13 3 -3 4 -12 1 -19z"/>
<path d="M8523 3435 c0 -27 2 -38 4 -22 2 15 2 37 0 50 -2 12 -4 0 -4 -28z"/>
<path d="M8590 3438 c0 -49 20 -69 47 -47 17 15 13 51 -5 57 -11 3 -11 1 -1
-17 10 -15 11 -23 2 -32 -18 -18 -31 -2 -31 37 0 19 -3 38 -6 41 -3 4 -6 -14
-6 -39z"/>
<path d="M8900 3465 c0 -8 -9 -15 -19 -15 -28 0 -38 -38 -15 -59 17 -15 17
-15 5 1 -16 21 -8 48 15 48 12 0 15 -7 12 -25 -3 -14 -1 -28 3 -31 5 -3 9 18
9 45 0 28 -2 51 -5 51 -3 0 -5 -7 -5 -15z"/>
<path d="M8310 3425 c0 -36 3 -45 18 -44 10 0 12 3 5 6 -7 2 -13 20 -13 39 0
40 21 46 44 12 9 -12 16 -17 16 -11 0 18 -29 43 -51 43 -16 0 -19 -7 -19 -45z"/>
<path d="M8413 3444 c20 -6 23 -24 5 -24 -9 0 -10 -3 -2 -8 6 -4 14 -14 17
-22 4 -8 5 1 4 20 -1 27 -7 35 -22 37 -16 1 -16 1 -2 -3z"/>
<path d="M8465 3439 c-4 -6 2 -19 14 -30 12 -11 21 -15 21 -10 0 6 -8 15 -17
20 -16 9 -16 12 -3 21 9 6 10 10 3 10 -6 0 -15 -5 -18 -11z"/>
<path d="M8547 3443 c6 -4 13 -22 16 -38 4 -27 5 -27 3 4 0 21 -7 36 -16 38
-10 3 -11 2 -3 -4z"/>
<path d="M8675 3439 c-4 -6 -4 -13 -1 -16 3 -4 6 -1 6 5 0 18 28 14 39 -5 6
-10 11 -13 11 -7 0 26 -42 45 -55 23z"/>
<path d="M8763 3444 c20 -6 23 -24 5 -24 -9 0 -10 -3 -2 -8 6 -4 14 -14 17
-22 4 -8 5 1 4 20 -1 27 -7 35 -22 37 -16 1 -16 1 -2 -3z"/>
<path d="M8813 3415 c0 -22 2 -30 4 -17 2 12 2 30 0 40 -3 9 -5 -1 -4 -23z"/>
<path d="M7466 3432 c-3 -5 1 -9 9 -9 8 0 15 4 15 9 0 4 -4 8 -9 8 -6 0 -12
-4 -15 -8z"/>
<path d="M8390 3401 c0 -10 19 -25 25 -20 1 2 -3 10 -11 17 -8 7 -14 8 -14 3z"/>
<path d="M8670 3402 c0 -18 29 -27 43 -13 9 9 8 11 -7 5 -11 -4 -21 -2 -27 7
-6 10 -9 11 -9 1z"/>
<path d="M8740 3401 c0 -10 19 -25 25 -20 1 2 -3 10 -11 17 -8 7 -14 8 -14 3z"/>
<path d="M9670 3125 c0 -25 1 -25 85 -25 84 0 85 0 85 25 0 25 -1 25 -85 25
-84 0 -85 0 -85 -25z"/>
<path d="M10160 3125 c0 -25 1 -25 85 -25 84 0 85 0 85 25 0 25 -1 25 -85 25
-84 0 -85 0 -85 -25z"/>
<path d="M11661 2970 c-13 -11 -19 -20 -14 -20 6 0 18 9 28 20 23 25 17 25
-14 0z"/>
<path d="M8324 2959 c-4 -7 -3 -9 4 -5 5 3 13 0 15 -6 4 -9 6 -10 6 -1 1 17
-16 25 -25 12z"/>
<path d="M11595 2950 l-30 -8 33 -1 c17 0 32 4 32 9 0 6 -1 9 -2 9 -2 -1 -16
-5 -33 -9z"/>
<path d="M11759 2929 c-44 -7 -87 -27 -117 -56 -13 -13 -42 -7 -42 8 0 5 -7 9
-16 9 -12 0 -9 -6 10 -21 l27 -21 43 30 c62 45 207 64 263 34 12 -7 48 -11 80
-10 l58 1 -65 6 c-36 3 -72 10 -80 16 -18 12 -99 14 -161 4z"/>
<path d="M8313 2896 c-18 -21 -18 -21 3 -3 21 17 21 17 28 -15 4 -18 10 -71
14 -118 6 -81 7 -82 12 -36 4 27 2 70 -3 95 -5 25 -9 58 -9 72 -1 31 -21 33
-45 5z"/>
<path d="M11478 2903 c7 -3 16 -2 19 1 4 3 -2 6 -13 5 -11 0 -14 -3 -6 -6z"/>
<path d="M11213 2883 c20 -2 54 -2 75 0 20 2 3 4 -38 4 -41 0 -58 -2 -37 -4z"/>
<path d="M11338 2883 c7 -3 16 -2 19 1 4 3 -2 6 -13 5 -11 0 -14 -3 -6 -6z"/>
<path d="M11522 2873 c-12 -3 -28 -13 -35 -24 -6 -10 -17 -19 -24 -19 -7 0
-13 -4 -13 -10 0 -16 16 -11 36 11 10 11 32 27 49 34 31 14 27 16 -13 8z"/>
<path d="M10713 2843 c31 -2 83 -2 115 0 31 2 5 3 -58 3 -63 0 -89 -1 -57 -3z"/>
<path d="M10393 2833 c48 -2 126 -2 175 0 48 1 8 3 -88 3 -96 0 -136 -2 -87
-3z"/>
<path d="M11397 2795 c-15 -19 -24 -35 -20 -35 4 0 21 16 36 35 15 19 24 35
20 35 -4 0 -21 -16 -36 -35z"/>
<path d="M10120 2810 c-18 -12 -2 -12 25 0 13 6 15 9 5 9 -8 0 -22 -4 -30 -9z"/>
<path d="M10013 2793 c15 -2 39 -2 55 0 15 2 2 4 -28 4 -30 0 -43 -2 -27 -4z"/>
<path d="M9935 2770 c-39 -26 -25 -26 17 0 18 11 29 20 23 20 -5 0 -23 -9 -40
-20z"/>
<path d="M11199 2743 c-12 -15 -12 -16 1 -7 8 5 49 12 90 15 l75 6 -76 1 c-61
2 -79 -1 -90 -15z"/>
<path d="M11090 2725 c-16 -8 -87 -17 -190 -23 l-165 -11 170 6 c96 2 175 9
182 15 7 6 28 14 46 18 27 7 28 8 7 9 -14 0 -36 -6 -50 -14z"/>
<path d="M8381 2714 c0 -11 3 -14 6 -6 3 7 2 16 -1 19 -3 4 -6 -2 -5 -13z"/>
<path d="M9875 2720 c-3 -5 -1 -10 4 -10 6 0 11 5 11 10 0 6 -2 10 -4 10 -3 0
-8 -4 -11 -10z"/>
<path d="M10708 2703 c7 -3 16 -2 19 1 4 3 -2 6 -13 5 -11 0 -14 -3 -6 -6z"/>
<path d="M10293 2693 c-13 -2 -23 -9 -23 -14 0 -6 5 -7 13 -2 6 4 102 10 212
13 l200 6 -190 1 c-104 0 -200 -2 -212 -4z"/>
<path d="M9845 2679 c-4 -6 -5 -12 -2 -15 2 -3 7 2 10 11 7 17 1 20 -8 4z"/>
<path d="M10215 2679 c-16 -5 -47 -11 -69 -14 -21 -4 -36 -8 -34 -10 5 -5 130
14 137 21 9 9 -5 10 -34 3z"/>
<path d="M9250 2670 c-9 -6 -10 -10 -3 -10 6 0 15 5 18 10 8 12 4 12 -15 0z"/>
<path d="M9195 2650 c-3 -6 1 -7 9 -4 18 7 21 14 7 14 -6 0 -13 -4 -16 -10z"/>
<path d="M9358 2653 c7 -3 16 -2 19 1 4 3 -2 6 -13 5 -11 0 -14 -3 -6 -6z"/>
<path d="M8371 2619 c0 -19 5 -43 10 -54 6 -13 7 -4 3 30 -8 60 -14 72 -13 24z"/>
<path d="M10011 2618 c-49 -24 -76 -47 -121 -101 -32 -39 -63 -89 -70 -111 -7
-23 -22 -54 -34 -71 -13 -16 -31 -46 -41 -65 l-18 -35 -18 43 c-10 23 -22 42
-27 42 -4 0 -21 -13 -37 -30 -34 -36 -42 -37 -48 -7 -4 19 -4 19 -5 2 -1 -11
2 -26 7 -34 7 -12 17 -7 47 24 l38 39 17 -42 c16 -37 39 -57 39 -33 0 5 16 33
36 62 20 30 45 77 55 104 10 28 41 77 68 111 47 58 69 73 181 122 14 6 18 11
10 11 -8 0 -44 -14 -79 -31z"/>
<path d="M9510 2630 c-23 -7 -23 -8 -3 -9 12 -1 25 4 28 9 3 6 5 10 3 9 -2 -1
-14 -5 -28 -9z"/>
<path d="M9754 2598 c-4 -7 -4 -10 1 -6 4 4 15 2 24 -5 14 -11 14 -10 2 6 -16
20 -18 21 -27 5z"/>
<path d="M9635 2560 c-10 -11 -22 -17 -28 -13 -6 4 -7 1 -2 -6 5 -9 13 -7 31
10 13 12 24 24 24 26 0 7 -8 2 -25 -17z"/>
<path d="M9114 2540 c-12 -5 -25 -13 -28 -19 -4 -5 7 -3 24 5 16 9 30 17 30
20 0 5 0 5 -26 -6z"/>
<path d="M8390 2533 c0 -15 52 -135 57 -130 2 2 -10 35 -26 73 -17 38 -30 64
-31 57z"/>
<path d="M8805 2520 c-3 -6 1 -7 9 -4 18 7 21 14 7 14 -6 0 -13 -4 -16 -10z"/>
<path d="M8870 2455 c13 -14 26 -25 28 -25 3 0 -5 11 -18 25 -13 14 -26 25
-28 25 -3 0 5 -11 18 -25z"/>
<path d="M8490 2457 c0 -2 15 -16 33 -33 l32 -29 -29 33 c-28 30 -36 37 -36
29z"/>
<path d="M8968 2413 c7 -3 16 -2 19 1 4 3 -2 6 -13 5 -11 0 -14 -3 -6 -6z"/>
<path d="M8610 2400 c-8 -5 -10 -10 -5 -10 6 0 17 5 25 10 8 5 11 10 5 10 -5
0 -17 -5 -25 -10z"/>
<path d="M9545 2380 c-13 -26 -21 -30 -55 -30 -31 0 -43 5 -56 25 -18 28 -39
32 -48 10 -7 -19 -37 -19 -62 0 -29 22 -52 18 -83 -15 -27 -30 -27 -31 -46
-10 -12 14 -31 20 -58 20 -46 0 -125 -34 -145 -62 -13 -18 -16 -18 -38 -4 -13
9 -33 16 -45 16 -12 0 -38 12 -56 26 -28 21 -37 24 -46 14 -9 -10 -9 -11 0 -6
7 4 28 -4 46 -18 19 -15 44 -26 57 -26 13 0 32 -7 42 -17 17 -15 20 -15 41 4
35 31 105 63 139 63 19 0 41 -9 55 -22 l23 -22 33 32 c36 35 58 40 77 17 16
-20 49 -19 72 1 17 16 19 15 39 -10 29 -37 91 -37 115 0 13 19 19 22 25 12 7
-10 9 -9 9 4 0 30 -19 29 -35 -2z"/>
<path d="M8567 2389 c7 -7 15 -10 18 -7 3 3 -2 9 -12 12 -14 6 -15 5 -6 -5z"/>
<path d="M8450 2385 c0 -11 34 -61 64 -93 46 -50 61 -56 92 -35 15 9 45 20 68
24 l41 6 -35 2 c-19 0 -52 -8 -72 -19 l-38 -20 -35 32 c-20 17 -45 48 -56 70
-17 34 -29 47 -29 33z"/>
<path d="M9582 2335 c0 -16 2 -22 5 -12 2 9 2 23 0 30 -3 6 -5 -1 -5 -18z"/>
<path d="M8786 2335 c-3 -9 -20 -21 -36 -27 -37 -12 -34 -22 4 -12 25 6 53 40
43 50 -2 3 -7 -2 -11 -11z"/>
<path d="M8422 1903 c-4 -10 -5 -34 -1 -53 6 -35 6 -35 9 -5 1 17 3 40 4 53 3
27 0 28 -12 5z"/>
<path d="M8313 1870 c0 -25 2 -35 4 -22 2 12 2 32 0 45 -2 12 -4 2 -4 -23z"/>
<path d="M8769 1899 c-2 -27 3 -64 9 -71 4 -4 6 11 5 33 -1 39 -12 67 -14 38z"/>
<path d="M8343 1855 c0 -22 2 -30 4 -17 2 12 2 30 0 40 -3 9 -5 -1 -4 -23z"/>
<path d="M8367 1883 c6 -4 13 -22 16 -38 4 -27 5 -27 3 4 0 21 -7 36 -16 38
-10 3 -11 2 -3 -4z"/>
<path d="M8465 1879 c-4 -6 -4 -13 -1 -16 3 -4 6 -1 6 5 0 18 28 14 39 -5 6
-10 11 -13 11 -7 0 26 -42 45 -55 23z"/>
<path d="M8542 1860 c0 -19 2 -27 5 -17 2 9 2 25 0 35 -3 9 -5 1 -5 -18z"/>
<path d="M8585 1880 c-3 -5 -1 -10 4 -10 6 0 11 5 11 10 0 6 -2 10 -4 10 -3 0
-8 -4 -11 -10z"/>
<path d="M8620 1875 c7 -9 15 -13 17 -11 7 7 -7 26 -19 26 -6 0 -6 -6 2 -15z"/>
<path d="M8658 1878 c7 -7 12 -21 12 -32 0 -10 3 -17 6 -13 10 10 -5 57 -18
57 -9 0 -9 -3 0 -12z"/>
<path d="M8713 1884 c18 -6 23 -20 8 -26 -5 -1 -2 -9 6 -17 13 -11 14 -9 11
15 -2 20 -9 29 -23 31 -16 1 -16 1 -2 -3z"/>
<path d="M8813 1855 c0 -22 2 -30 4 -17 2 12 2 30 0 40 -3 9 -5 -1 -4 -23z"/>
<path d="M8844 1876 c-3 -8 -4 -23 -1 -33 3 -12 5 -8 6 10 1 17 7 27 16 27 25
0 31 -31 9 -48 -10 -8 -13 -12 -5 -10 25 7 36 35 22 52 -17 20 -40 21 -47 2z"/>
<path d="M8923 1855 c0 -22 2 -30 4 -17 2 12 2 30 0 40 -3 9 -5 -1 -4 -23z"/>
<path d="M8947 1883 c6 -4 13 -22 16 -38 4 -27 5 -27 3 4 0 21 -7 36 -16 38
-10 3 -11 2 -3 -4z"/>
<path d="M8460 1842 c0 -18 29 -27 43 -13 9 9 8 11 -7 5 -11 -4 -21 -2 -27 7
-6 10 -9 11 -9 1z"/>
<path d="M8690 1841 c0 -10 19 -25 25 -20 1 2 -3 10 -11 17 -8 7 -14 8 -14 3z"/>
<path d="M8354 1518 c-3 -5 -12 -7 -20 -4 -9 3 -14 -1 -14 -14 0 -10 -4 -21
-9 -24 -9 -6 9 -56 20 -56 4 0 6 17 5 38 -1 37 -1 37 37 36 43 -1 47 6 12 23
-16 7 -27 8 -31 1z"/>
<path d="M9690 1520 c0 -5 -11 -10 -25 -10 -18 0 -23 -4 -18 -15 3 -9 -2 -22
-13 -30 -18 -13 -18 -14 -1 -20 9 -4 17 -16 17 -26 0 -12 7 -19 19 -19 11 0
21 -6 24 -12 4 -10 7 -10 18 0 7 6 21 12 32 12 13 0 17 5 12 19 -4 12 0 21 12
26 17 6 17 7 0 19 -10 8 -15 20 -11 30 4 11 0 16 -14 16 -12 0 -24 5 -27 10
-3 6 -10 10 -16 10 -5 0 -9 -4 -9 -10z m44 -36 c20 -20 20 -33 -1 -56 -29 -32
-73 -16 -73 27 0 42 44 59 74 29z"/>
<path d="M9673 1464 c-4 -11 1 -22 12 -31 16 -11 21 -11 33 1 8 8 12 22 9 30
-8 21 -46 21 -54 0z"/>
<path d="M11009 1523 c-1 -5 0 -18 1 -30 1 -17 -3 -21 -14 -17 -9 3 -16 12
-16 20 0 8 -6 11 -15 8 -21 -8 -19 -41 3 -40 9 1 17 -3 17 -9 0 -5 -8 -10 -17
-9 -22 1 -24 -32 -3 -40 9 -3 15 0 15 8 0 8 7 17 16 20 13 5 15 1 10 -17 -7
-28 0 -38 20 -30 10 4 11 9 1 23 -17 28 2 39 22 13 11 -13 23 -18 30 -13 19
11 15 24 -9 30 -12 3 -21 10 -21 15 0 6 9 12 21 15 24 6 28 19 9 31 -8 5 -18
0 -27 -13 -10 -13 -18 -16 -25 -9 -7 7 -7 14 1 24 7 8 9 17 5 20 -9 9 -23 9
-24 0z"/>
<path d="M11400 1495 c0 -8 -9 -15 -19 -15 -28 0 -38 -38 -15 -59 17 -15 17
-15 5 1 -16 21 -8 48 15 48 12 0 15 -7 12 -25 -3 -14 -1 -28 3 -31 5 -3 9 18
9 45 0 28 -2 51 -5 51 -3 0 -5 -7 -5 -15z"/>
<path d="M8583 1493 c9 -2 25 -2 35 0 9 3 1 5 -18 5 -19 0 -27 -2 -17 -5z"/>
<path d="M9079 1489 c-2 -27 3 -64 9 -71 4 -4 6 11 5 33 -1 39 -12 67 -14 38z"/>
<path d="M9863 1460 c-1 -25 1 -37 4 -27 3 10 14 17 28 17 14 0 25 -7 28 -17
3 -10 5 2 4 27 0 25 -2 35 -4 23 -3 -16 -11 -23 -28 -23 -17 0 -25 7 -28 23
-2 12 -4 2 -4 -23z"/>
<path d="M10249 1489 c-2 -27 3 -64 9 -71 4 -4 6 11 5 33 -1 39 -12 67 -14 38z"/>
<path d="M10331 1458 c1 -24 3 -35 6 -25 2 9 11 17 18 17 8 0 16 4 19 9 4 5
-3 7 -14 4 -14 -4 -20 0 -20 12 0 12 6 16 20 12 11 -3 20 -1 20 4 0 5 -11 9
-25 9 -23 0 -25 -4 -24 -42z"/>
<path d="M11176 1484 c-9 -8 -16 -22 -16 -29 0 -19 28 -45 48 -45 12 0 9 4 -8
13 -14 7 -25 21 -25 32 0 11 11 25 25 32 17 9 20 13 8 13 -9 0 -24 -7 -32 -16z"/>
<path d="M11559 1489 c-2 -27 3 -64 9 -71 4 -4 6 11 5 33 -1 39 -12 67 -14 38z"/>
<path d="M11641 1458 c1 -24 3 -35 6 -25 2 9 11 17 18 17 8 0 16 4 19 9 4 5
-3 7 -14 4 -14 -4 -20 0 -20 12 0 12 6 16 20 12 11 -3 20 -1 20 4 0 5 -11 9
-25 9 -23 0 -25 -4 -24 -42z"/>
<path d="M8343 1474 c-8 -22 15 -43 27 -24 5 8 10 21 10 28 0 17 -30 15 -37
-4z"/>
<path d="M10030 1480 c0 -5 7 -10 16 -10 8 0 12 5 9 10 -3 6 -10 10 -16 10 -5
0 -9 -4 -9 -10z"/>
<path d="M10077 1482 c-7 -13 13 -72 25 -72 9 0 9 3 0 12 -15 15 -15 45 0 50
8 3 6 7 -5 11 -9 3 -18 3 -20 -1z"/>
<path d="M8660 1473 c18 -9 10 -25 -10 -20 -12 3 -20 0 -20 -7 0 -15 20 -36
34 -36 5 0 1 7 -10 15 -18 14 -18 14 4 15 16 0 22 5 20 17 -2 9 -9 18 -16 19
-7 1 -8 0 -2 -3z"/>
<path d="M8705 1470 c-3 -5 -1 -10 4 -10 6 0 11 5 11 10 0 6 -2 10 -4 10 -3 0
-8 -4 -11 -10z"/>
<path d="M8740 1465 c7 -9 15 -13 17 -11 7 7 -7 26 -19 26 -6 0 -6 -6 2 -15z"/>
<path d="M8778 1468 c7 -7 12 -21 12 -32 0 -10 3 -17 6 -13 10 10 -5 57 -18
57 -9 0 -9 -3 0 -12z"/>
<path d="M8823 1435 c0 -27 2 -38 4 -22 2 15 2 37 0 50 -2 12 -4 0 -4 -28z"/>
<path d="M8850 1473 c5 -2 10 -15 10 -28 0 -13 -5 -26 -10 -28 -6 -3 -5 -4 2
-3 7 2 13 15 13 31 0 16 -6 29 -13 31 -7 1 -8 0 -2 -3z"/>
<path d="M8920 1473 c18 -9 10 -25 -10 -20 -12 3 -20 0 -20 -7 0 -15 20 -36
34 -36 5 0 1 7 -10 15 -18 14 -18 14 4 15 16 0 22 5 20 17 -2 9 -9 18 -16 19
-7 1 -8 0 -2 -3z"/>
<path d="M8961 1448 c2 -28 2 -29 6 -8 3 14 10 28 17 32 7 5 5 8 -6 8 -14 0
-18 -8 -17 -32z"/>
<path d="M9030 1470 c13 -9 13 -12 -2 -21 -19 -11 -25 -39 -8 -39 5 0 7 7 4
15 -4 8 -2 15 4 15 6 0 13 -6 15 -12 3 -7 6 2 6 20 1 24 -3 32 -16 32 -16 0
-16 -2 -3 -10z"/>
<path d="M9123 1451 c1 -21 8 -36 17 -39 12 -4 13 -2 3 9 -6 8 -13 25 -16 39
-4 17 -5 15 -4 -9z"/>
<path d="M9162 1450 c0 -19 2 -27 5 -17 2 9 2 25 0 35 -3 9 -5 1 -5 -18z"/>
<path d="M9202 1450 c0 -19 2 -27 5 -17 2 9 2 25 0 35 -3 9 -5 1 -5 -18z"/>
<path d="M9270 1473 c18 -9 10 -25 -10 -20 -12 3 -20 0 -20 -7 0 -15 20 -36
34 -36 5 0 1 7 -10 15 -18 14 -18 14 4 15 16 0 22 5 20 17 -2 9 -9 18 -16 19
-7 1 -8 0 -2 -3z"/>
<path d="M9315 1469 c-4 -6 2 -19 14 -30 12 -11 21 -15 21 -10 0 6 -8 15 -17
20 -16 9 -16 12 -3 21 9 6 10 10 3 10 -6 0 -15 -5 -18 -11z"/>
<path d="M9402 1450 c0 -19 2 -27 5 -17 2 9 2 25 0 35 -3 9 -5 1 -5 -18z"/>
<path d="M9435 1470 c-3 -5 -1 -10 4 -10 6 0 11 5 11 10 0 6 -2 10 -4 10 -3 0
-8 -4 -11 -10z"/>
<path d="M9468 1468 c7 -7 12 -23 13 -37 0 -15 3 -20 6 -13 7 19 -6 62 -19 62
-9 0 -9 -3 0 -12z"/>
<path d="M9960 1465 c-15 -18 -4 -46 21 -53 8 -2 5 2 -5 10 -12 9 -17 21 -13
32 10 25 35 19 40 -9 4 -23 4 -23 3 2 -1 32 -26 42 -46 18z"/>
<path d="M10150 1473 c18 -9 10 -25 -10 -20 -12 3 -20 0 -20 -7 0 -15 20 -36
34 -36 5 0 1 7 -10 15 -18 14 -18 14 4 15 16 0 22 5 20 17 -2 9 -9 18 -16 19
-7 1 -8 0 -2 -3z"/>
<path d="M10195 1469 c-4 -6 2 -19 14 -30 12 -11 21 -15 21 -10 0 6 -8 15 -17
20 -16 9 -16 12 -3 21 9 6 10 10 3 10 -6 0 -15 -5 -18 -11z"/>
<path d="M10410 1465 c-15 -18 -4 -46 21 -53 8 -2 5 2 -5 10 -12 9 -17 21 -13
32 9 24 35 20 40 -6 5 -20 5 -20 4 2 -2 29 -28 38 -47 15z"/>
<path d="M10484 1466 c-3 -8 -4 -23 -1 -33 3 -12 5 -8 6 10 1 17 7 27 16 27
25 0 31 -31 9 -48 -10 -8 -13 -12 -5 -10 25 7 36 35 22 52 -17 20 -40 21 -47
2z"/>
<path d="M10563 1445 c0 -22 2 -30 4 -17 2 12 2 30 0 40 -3 9 -5 -1 -4 -23z"/>
<path d="M10587 1473 c6 -4 13 -22 16 -38 4 -27 5 -27 3 4 0 21 -7 36 -16 38
-10 3 -11 2 -3 -4z"/>
<path d="M10626 1473 c7 -4 14 -19 17 -33 4 -22 5 -21 4 4 -1 17 -9 31 -17 33
-10 3 -11 2 -4 -4z"/>
<path d="M11250 1465 c-15 -18 -4 -46 21 -53 8 -2 5 2 -5 10 -12 9 -17 21 -13
32 10 25 35 19 40 -9 4 -23 4 -23 3 2 -1 32 -26 42 -46 18z"/>
<path d="M11460 1473 c18 -9 10 -25 -10 -20 -12 3 -20 0 -20 -7 0 -15 20 -36
34 -36 5 0 1 7 -10 15 -18 14 -18 14 4 15 16 0 22 5 20 17 -2 9 -9 18 -16 19
-7 1 -8 0 -2 -3z"/>
<path d="M11505 1469 c-4 -6 2 -19 14 -30 12 -11 21 -15 21 -10 0 6 -8 15 -17
20 -16 9 -16 12 -3 21 9 6 10 10 3 10 -6 0 -15 -5 -18 -11z"/>
<path d="M11720 1465 c-15 -18 -4 -46 21 -53 8 -2 5 2 -5 10 -12 9 -17 21 -13
32 9 24 35 20 40 -6 5 -20 5 -20 4 2 -2 29 -28 38 -47 15z"/>
<path d="M11794 1466 c-3 -8 -4 -23 -1 -33 3 -12 5 -8 6 10 1 17 7 27 16 27
25 0 31 -31 9 -48 -10 -8 -13 -12 -5 -10 25 7 36 35 22 52 -17 20 -40 21 -47
2z"/>
<path d="M11873 1445 c0 -22 2 -30 4 -17 2 12 2 30 0 40 -3 9 -5 -1 -4 -23z"/>
<path d="M11897 1473 c6 -4 13 -22 16 -38 4 -27 5 -27 3 4 0 21 -7 36 -16 38
-10 3 -11 2 -3 -4z"/>
<path d="M11936 1473 c7 -4 14 -19 17 -33 4 -22 5 -21 4 4 -1 17 -9 31 -17 33
-10 3 -11 2 -4 -4z"/>
<path d="M8384 1447 c-33 -37 -36 -47 -24 -62 18 -22 128 -21 137 1 8 22 -13
57 -44 72 -37 17 -46 15 -69 -11z"/>
<path d="M10040 1420 c0 -5 5 -10 11 -10 5 0 7 5 4 10 -3 6 -8 10 -11 10 -2 0
-4 -4 -4 -10z"/>
<path d="M10200 1345 c0 -8 -9 -15 -19 -15 -28 0 -38 -38 -15 -59 17 -15 17
-15 5 1 -16 21 -8 48 15 48 12 0 15 -7 12 -25 -3 -14 -1 -28 3 -31 5 -3 9 18
9 45 0 28 -2 51 -5 51 -3 0 -5 -7 -5 -15z"/>
<path d="M8579 1339 c-2 -27 3 -64 9 -71 4 -4 6 11 5 33 -1 39 -12 67 -14 38z"/>
<path d="M8803 1310 c-1 -25 1 -37 4 -27 3 10 14 17 28 17 14 0 25 -7 28 -17
3 -10 5 2 4 27 0 25 -2 35 -4 23 -3 -16 -11 -23 -28 -23 -17 0 -25 7 -28 23
-2 12 -4 2 -4 -23z"/>
<path d="M9880 1341 c0 -5 7 -11 14 -14 10 -4 13 -1 9 9 -6 15 -23 19 -23 5z"/>
<path d="M11186 1334 c-9 -24 -7 -27 9 -10 17 17 19 26 6 26 -5 0 -12 -7 -15
-16z"/>
<path d="M8625 1320 c-3 -5 -1 -10 4 -10 6 0 11 5 11 10 0 6 -2 10 -4 10 -3 0
-8 -4 -11 -10z"/>
<path d="M8657 1319 c6 -8 13 -25 16 -39 4 -17 5 -15 4 9 -1 21 -8 36 -17 39
-12 4 -13 2 -3 -9z"/>
<path d="M8699 1314 c-14 -17 -3 -45 22 -52 8 -2 5 3 -6 12 -20 15 -20 15 1
16 28 0 36 10 23 27 -15 17 -24 17 -40 -3z m36 -4 c3 -5 -3 -10 -15 -10 -12 0
-18 5 -15 10 3 6 10 10 15 10 5 0 12 -4 15 -10z"/>
<path d="M8900 1315 c-15 -18 -4 -46 21 -53 8 -2 5 2 -5 10 -12 9 -17 21 -13
32 9 24 35 20 40 -6 5 -20 5 -20 4 2 -2 29 -28 38 -47 15z"/>
<path d="M8973 1301 c1 -21 8 -36 17 -39 12 -4 13 -2 3 9 -6 8 -13 25 -16 39
-4 17 -5 15 -4 -9z"/>
<path d="M9012 1300 c0 -19 2 -27 5 -17 2 9 2 25 0 35 -3 9 -5 1 -5 -18z"/>
<path d="M9044 1318 c-4 -6 1 -17 12 -25 16 -12 17 -15 4 -23 -9 -6 -10 -10
-3 -10 21 0 25 21 8 40 -15 17 -15 19 2 23 15 4 16 5 1 6 -9 0 -20 -4 -24 -11z"/>
<path d="M9104 1316 c-9 -23 0 -51 16 -52 9 0 10 1 3 3 -21 7 -15 23 8 23 14
0 19 5 17 17 -4 23 -36 29 -44 9z m36 -6 c0 -5 -7 -10 -15 -10 -8 0 -15 5 -15
10 0 6 7 10 15 10 8 0 15 -4 15 -10z"/>
<path d="M10065 1316 c17 -13 18 -15 3 -16 -23 0 -33 -19 -19 -33 9 -9 11 -8
6 6 -5 12 -2 17 10 17 9 0 13 -4 10 -10 -3 -5 -1 -10 5 -10 21 0 7 55 -15 58
l-20 4 20 -16z"/>
<path d="M10113 1295 c0 -22 2 -30 4 -17 2 12 2 30 0 40 -3 9 -5 -1 -4 -23z"/>
<path d="M11280 1316 c0 -9 5 -16 10 -16 6 0 10 4 10 9 0 6 -4 13 -10 16 -5 3
-10 -1 -10 -9z"/>
<path d="M11321 1314 c0 -11 3 -14 6 -6 3 7 2 16 -1 19 -3 4 -6 -2 -5 -13z"/>
<path d="M11370 1320 c13 -9 13 -12 -2 -21 -19 -11 -25 -39 -8 -39 5 0 7 7 4
15 -4 8 -2 15 4 15 6 0 13 -6 15 -12 3 -7 6 2 6 20 1 24 -3 32 -16 32 -16 0
-16 -2 -3 -10z"/>
<path d="M11422 1300 c0 -19 2 -27 5 -17 2 9 2 25 0 35 -3 9 -5 1 -5 -18z"/>
<path d="M11464 1316 c-8 -22 -1 -49 14 -52 7 -1 8 0 2 3 -5 2 -10 16 -10 30
0 20 4 24 20 20 11 -3 20 -1 20 4 0 15 -40 10 -46 -5z"/>
<path d="M9867 1299 c-4 -13 -4 -25 -2 -28 3 -2 5 1 5 7 0 7 11 12 25 12 14 0
25 4 25 10 0 5 -7 7 -16 3 -9 -3 -19 0 -24 6 -5 9 -9 5 -13 -10z"/>
<path d="M11211 1313 c-1 -6 -11 -14 -23 -16 -20 -4 -19 -4 5 -6 15 0 27 -6
27 -13 0 -6 2 -9 5 -6 3 3 1 16 -4 29 -5 13 -10 19 -10 12z"/>
<path d="M11251 1310 c0 -8 4 -24 9 -35 5 -13 9 -14 9 -5 0 8 -4 24 -9 35 -5
13 -9 14 -9 5z"/>
<path d="M9950 1288 c0 -9 5 -20 10 -23 13 -8 13 5 0 25 -8 13 -10 13 -10 -2z"/>
<path d="M9990 1295 c0 -5 5 -17 10 -25 5 -8 10 -10 10 -5 0 6 -5 17 -10 25
-5 8 -10 11 -10 5z"/>
<path d="M11300 1280 c0 -5 5 -10 10 -10 6 0 10 5 10 10 0 6 -4 10 -10 10 -5
0 -10 -4 -10 -10z"/>
<path d="M8770 1155 c0 -8 2 -15 4 -15 2 0 6 7 10 15 3 8 1 15 -4 15 -6 0 -10
-7 -10 -15z"/>
<path d="M11161 1154 c0 -11 3 -14 6 -6 3 7 2 16 -1 19 -3 4 -6 -2 -5 -13z"/>
<path d="M11205 1150 c-3 -5 -1 -10 4 -10 6 0 11 5 11 10 0 6 -2 10 -4 10 -3
0 -8 -4 -11 -10z"/>
<path d="M8660 860 c0 -5 5 -10 11 -10 5 0 7 5 4 10 -3 6 -8 10 -11 10 -2 0
-4 -4 -4 -10z"/>
<path d="M8571 774 c0 -11 3 -14 6 -6 3 7 2 16 -1 19 -3 4 -6 -2 -5 -13z"/>
<path d="M3000 2524 c0 -10 7 -14 22 -12 32 5 35 28 4 28 -17 0 -26 -5 -26
-16z"/>
<path d="M2350 2165 c0 -11 11 -15 40 -15 29 0 40 4 40 15 0 11 -11 15 -40 15
-29 0 -40 -4 -40 -15z"/>
<path d="M2600 2165 c0 -11 11 -15 40 -15 29 0 40 4 40 15 0 11 -11 15 -40 15
-29 0 -40 -4 -40 -15z"/>
<path d="M2987 2115 c-12 -11 -17 -12 -20 -2 -4 8 -6 8 -6 0 -1 -6 -11 -9 -23
-6 -18 3 -20 2 -7 -6 8 -5 24 -8 35 -6 10 2 28 4 39 5 11 1 14 4 7 7 -6 2 -10
9 -6 14 8 14 -3 11 -19 -6z"/>
<path d="M2145 2100 c3 -5 8 -10 11 -10 2 0 4 5 4 10 0 6 -5 10 -11 10 -5 0
-7 -4 -4 -10z"/>
<path d="M2820 2100 l-45 -7 40 0 c22 0 54 3 70 7 26 7 27 8 5 7 -14 0 -45 -3
-70 -7z"/>
<path d="M3058 2103 c7 -3 16 -2 19 1 4 3 -2 6 -13 5 -11 0 -14 -3 -6 -6z"/>
<path d="M2573 2083 c9 -2 23 -2 30 0 6 3 -1 5 -18 5 -16 0 -22 -2 -12 -5z"/>
<path d="M2530 2066 c-6 -8 -21 -17 -33 -19 -21 -4 -21 -4 -1 -6 11 0 29 8 39
19 10 11 16 20 13 20 -3 0 -11 -6 -18 -14z"/>
<path d="M2863 2073 c9 -2 25 -2 35 0 9 3 1 5 -18 5 -19 0 -27 -2 -17 -5z"/>
<path d="M2435 2056 c17 -8 32 -12 34 -10 7 6 -2 11 -34 17 l-30 6 30 -13z"/>
<path d="M2637 2063 c18 -2 50 -2 70 0 21 2 7 4 -32 4 -38 0 -55 -2 -38 -4z"/>
<path d="M2763 2063 c9 -2 23 -2 30 0 6 3 -1 5 -18 5 -16 0 -22 -2 -12 -5z"/>
<path d="M2554 2044 c-19 -15 -19 -15 1 -6 11 5 27 12 35 15 13 5 13 6 -1 6
-8 1 -24 -6 -35 -15z"/>
<path d="M2168 2043 c6 -2 9 -10 6 -15 -4 -6 -2 -8 4 -4 6 3 13 2 17 -4 3 -5
14 -10 23 -9 13 0 12 2 -4 9 -12 5 -25 13 -29 19 -3 6 -12 11 -18 10 -9 0 -8
-2 1 -6z"/>
<path d="M2260 2030 c-12 -7 -10 -9 7 -7 12 0 19 5 17 9 -6 10 -6 10 -24 -2z"/>
<path d="M2310 2010 c8 -5 20 -10 25 -10 6 0 3 5 -5 10 -8 5 -19 10 -25 10 -5
0 -3 -5 5 -10z"/>
<path d="M2370 2010 c-8 -5 -10 -10 -5 -10 6 0 17 5 25 10 8 5 11 10 5 10 -5
0 -17 -5 -25 -10z"/>
<path d="M2423 2009 c9 -6 22 -7 27 -4 6 3 10 1 10 -4 0 -17 46 -13 61 6 13
15 12 15 -7 3 -13 -8 -29 -10 -40 -5 -11 4 -30 9 -44 11 -21 2 -22 1 -7 -7z"/>
<path d="M2187 1999 c7 -7 15 -10 18 -7 3 3 -2 9 -12 12 -14 6 -15 5 -6 -5z"/>
<path d="M2268 2003 c7 -3 16 -2 19 1 4 3 -2 6 -13 5 -11 0 -14 -3 -6 -6z"/>
<path d="M2228 1993 c7 -3 16 -2 19 1 4 3 -2 6 -13 5 -11 0 -14 -3 -6 -6z"/>
<path d="M2139 1649 c-12 -7 -12 -9 1 -9 12 0 12 -2 2 -9 -11 -7 -11 -9 2 -14
10 -4 16 -1 16 7 0 8 5 16 12 18 8 3 7 6 -3 10 -9 3 -22 2 -30 -3z"/>
<path d="M2162 1610 c-17 -28 -16 -30 23 -30 39 0 48 22 16 40 -25 13 -24 13
-39 -10z"/>
<path d="M2150 1251 c-8 -3 -16 -15 -18 -26 -2 -18 -2 -18 8 -2 12 18 40 24
40 7 0 -5 -7 -7 -16 -3 -12 4 -15 2 -12 -8 3 -8 11 -13 18 -11 11 3 11 0 0
-13 -11 -13 -10 -15 3 -9 19 7 28 29 21 48 -7 18 -25 25 -44 17z"/>
<path d="M2166 974 c-11 -7 -17 -17 -13 -20 3 -4 14 1 23 10 21 22 15 28 -10
10z"/>
<path d="M3422 3860 c-10 -17 -10 -20 6 -20 11 0 18 7 18 20 0 11 -3 20 -6 20
-3 0 -11 -9 -18 -20z"/>
<path d="M3313 3825 c0 -27 2 -38 4 -22 2 15 2 37 0 50 -2 12 -4 0 -4 -28z"/>
<path d="M3769 3859 c-2 -27 3 -64 9 -71 4 -4 6 11 5 33 -1 39 -12 67 -14 38z"/>
<path d="M3345 3840 c-3 -5 -1 -10 4 -10 6 0 11 5 11 10 0 6 -2 10 -4 10 -3 0
-8 -4 -11 -10z"/>
<path d="M3378 3838 c7 -7 12 -23 13 -37 0 -15 3 -20 6 -13 7 19 -6 62 -19 62
-9 0 -9 -3 0 -12z"/>
<path d="M3470 3835 c-15 -18 -4 -46 21 -53 8 -2 5 2 -5 10 -12 9 -17 21 -13
32 9 24 35 20 40 -6 5 -20 5 -20 4 2 -2 29 -28 38 -47 15z"/>
<path d="M3543 3815 c0 -22 2 -30 4 -17 2 12 2 30 0 40 -3 9 -5 -1 -4 -23z"/>
<path d="M3592 3820 c0 -19 2 -27 5 -17 2 9 2 25 0 35 -3 9 -5 1 -5 -18z"/>
<path d="M3616 3839 c7 -8 14 -23 17 -34 4 -13 5 -9 4 9 -1 16 -9 32 -17 34
-12 4 -13 2 -4 -9z"/>
<path d="M3657 3843 c6 -4 13 -22 16 -38 4 -27 5 -27 3 4 0 21 -7 36 -16 38
-10 3 -11 2 -3 -4z"/>
<path d="M3725 3836 c17 -13 18 -15 3 -16 -23 0 -33 -19 -19 -33 9 -9 11 -8 6
6 -5 12 -2 17 10 17 9 0 13 -4 10 -10 -3 -5 -1 -10 5 -10 21 0 7 55 -15 58
l-20 4 20 -16z"/>
<path d="M3850 3835 c-15 -18 -4 -46 21 -53 8 -2 5 2 -5 10 -12 9 -17 21 -13
32 10 25 35 19 40 -9 4 -23 4 -23 3 2 -1 32 -26 42 -46 18z"/>
<path d="M3925 3840 c-3 -5 -1 -10 4 -10 6 0 11 5 11 10 0 6 -2 10 -4 10 -3 0
-8 -4 -11 -10z"/>
<path d="M3958 3838 c7 -7 12 -23 13 -37 0 -15 3 -20 6 -13 7 19 -6 62 -19 62
-9 0 -9 -3 0 -12z"/>
<path d="M5005 3488 c-4 -10 -16 -18 -26 -18 -12 0 -19 -7 -19 -20 0 -10 -7
-23 -16 -28 -15 -8 -15 -10 0 -15 9 -4 16 -16 16 -27 0 -13 7 -20 19 -20 11 0
23 -5 27 -11 4 -8 9 -8 17 0 6 6 20 11 30 11 12 0 17 5 14 14 -3 8 1 20 9 27
10 8 12 15 4 23 -5 5 -10 18 -10 28 0 11 -7 18 -20 18 -10 0 -23 8 -29 18 -9
16 -10 16 -16 0z m40 -41 c26 -19 13 -65 -20 -73 -31 -8 -55 10 -55 42 0 37
42 55 75 31z"/>
<path d="M4986 3425 c-3 -8 2 -21 10 -29 20 -20 44 -9 44 20 0 19 -5 24 -24
24 -13 0 -26 -7 -30 -15z"/>
<path d="M3355 3479 c-4 -6 -13 -8 -21 -5 -8 3 -14 0 -14 -7 0 -16 92 -16 97
0 3 7 -4 9 -16 6 -12 -3 -21 -1 -21 6 0 14 -17 14 -25 0z"/>
<path d="M6629 3483 c-1 -5 0 -18 1 -30 1 -17 -3 -21 -14 -17 -9 3 -16 12 -16
20 0 8 -6 11 -15 8 -21 -8 -19 -41 3 -40 9 1 17 -3 17 -9 0 -5 -8 -10 -17 -9
-22 1 -24 -32 -3 -40 9 -3 15 0 15 8 0 8 7 17 16 20 13 5 15 1 10 -17 -7 -28
0 -38 20 -30 10 4 11 9 1 23 -17 28 2 39 22 13 11 -13 23 -18 30 -13 19 11 15
24 -9 30 -12 3 -21 10 -21 15 0 6 9 12 21 15 24 6 28 19 9 31 -8 5 -18 0 -27
-13 -10 -13 -18 -16 -25 -9 -7 7 -7 14 1 24 7 8 9 17 5 20 -9 9 -23 9 -24 0z"/>
<path d="M4603 3425 c0 -27 2 -38 4 -22 2 15 2 37 0 50 -2 12 -4 0 -4 -28z"/>
<path d="M6360 3455 c0 -8 -9 -15 -19 -15 -28 0 -38 -38 -16 -59 16 -15 16
-15 4 6 -10 17 -11 25 -2 34 16 16 36 1 30 -22 -3 -10 -1 -22 4 -25 5 -3 9 18
9 45 0 28 -2 51 -5 51 -3 0 -5 -7 -5 -15z"/>
<path d="M7020 3455 c0 -8 -9 -15 -19 -15 -28 0 -38 -38 -15 -59 17 -15 17
-15 5 1 -16 21 -8 48 15 48 12 0 15 -7 12 -25 -3 -14 -1 -28 3 -31 5 -3 9 18
9 45 0 28 -2 51 -5 51 -3 0 -5 -7 -5 -15z"/>
<path d="M3583 3453 c12 -3 17 -16 19 -46 l1 -42 4 40 c3 22 10 43 16 47 7 4
-4 7 -23 7 -19 -1 -27 -3 -17 -6z"/>
<path d="M5183 3420 c-1 -25 1 -37 4 -27 4 14 12 18 29 14 15 -2 24 0 24 8 0
8 -9 10 -24 8 -19 -4 -25 0 -29 18 -2 13 -4 4 -4 -21z"/>
<path d="M5349 3449 c-2 -27 3 -64 9 -71 4 -4 6 11 5 33 -1 39 -12 67 -14 38z"/>
<path d="M5641 3418 c1 -24 3 -35 6 -25 2 9 9 17 15 17 6 0 17 -8 25 -17 13
-17 13 -16 4 3 -7 14 -7 24 1 32 15 15 1 32 -28 32 -22 0 -24 -4 -23 -42z m42
17 c1 -5 -6 -11 -15 -13 -11 -2 -18 3 -18 13 0 17 30 18 33 0z"/>
<path d="M6040 3450 c0 -5 5 -10 10 -10 6 0 10 -7 10 -15 0 -8 -4 -15 -10 -15
-5 0 -10 6 -10 13 0 8 -4 7 -10 -3 -5 -8 -9 -22 -9 -30 0 -10 2 -11 6 -2 7 18
40 15 53 -5 13 -20 11 -15 -12 50 -10 26 -28 38 -28 17z"/>
<path d="M6802 3448 c-7 -7 -12 -16 -12 -22 0 -5 6 -3 13 6 6 9 21 18 32 21
20 5 20 5 0 6 -12 0 -26 -4 -33 -11z"/>
<path d="M3346 3441 c-7 -11 3 -41 13 -41 10 0 30 37 24 44 -9 9 -31 7 -37 -3z"/>
<path d="M4080 3440 c0 -5 7 -10 16 -10 8 0 12 5 9 10 -3 6 -10 10 -16 10 -5
0 -9 -4 -9 -10z"/>
<path d="M4547 3442 c-7 -13 13 -72 25 -72 9 0 9 3 0 12 -15 15 -15 45 0 50 8
3 6 7 -5 11 -9 3 -18 3 -20 -1z"/>
<path d="M5390 3440 c0 -5 7 -10 16 -10 8 0 12 5 9 10 -3 6 -10 10 -16 10 -5
0 -9 -4 -9 -10z"/>
<path d="M5557 3442 c-7 -13 13 -72 25 -72 9 0 9 3 0 12 -15 15 -15 45 0 50 8
3 6 7 -5 11 -9 3 -18 3 -20 -1z"/>
<path d="M3305 3430 c-3 -6 0 -13 9 -16 8 -3 12 -12 9 -20 -3 -8 0 -14 6 -14
12 0 13 6 5 38 -7 23 -19 29 -29 12z"/>
<path d="M3641 3422 c-13 -23 8 -58 30 -49 10 4 9 6 -3 6 -25 1 -22 21 3 21
14 0 19 5 17 17 -5 25 -35 28 -47 5z m39 -2 c0 -5 -7 -10 -15 -10 -8 0 -15 5
-15 10 0 6 7 10 15 10 8 0 15 -4 15 -10z"/>
<path d="M3712 3410 c0 -19 2 -27 5 -17 2 9 2 25 0 35 -3 9 -5 1 -5 -18z"/>
<path d="M3736 3429 c7 -8 14 -23 17 -34 4 -13 5 -9 4 9 -1 16 -9 32 -17 34
-12 4 -13 2 -4 -9z"/>
<path d="M3777 3433 c6 -4 13 -22 16 -38 4 -27 5 -27 3 4 0 21 -7 36 -16 38
-10 3 -11 2 -3 -4z"/>
<path d="M3821 3393 c0 -26 3 -41 7 -33 4 8 13 15 21 15 8 0 18 7 24 16 11 18
3 49 -13 49 -6 0 -6 -7 2 -20 9 -15 10 -22 1 -31 -16 -16 -36 -1 -30 22 3 10
1 22 -4 25 -5 3 -9 -16 -8 -43z"/>
<path d="M3901 3422 c-13 -23 8 -58 30 -49 10 4 9 6 -3 6 -25 1 -22 21 3 21
14 0 19 5 17 17 -5 25 -35 28 -47 5z m39 -2 c0 -5 -7 -10 -15 -10 -8 0 -15 5
-15 10 0 6 7 10 15 10 8 0 15 -4 15 -10z"/>
<path d="M3972 3410 c0 -19 2 -27 5 -17 2 9 2 25 0 35 -3 9 -5 1 -5 -18z"/>
<path d="M4033 3434 c20 -6 23 -24 5 -24 -9 0 -10 -3 -2 -8 6 -4 14 -14 17
-22 4 -8 5 1 4 20 -1 27 -7 35 -22 37 -16 1 -16 1 -2 -3z"/>
<path d="M4168 3410 c-3 -17 -1 -33 4 -36 4 -3 8 11 8 30 0 44 -6 47 -12 6z"/>
<path d="M4201 3408 c2 -28 2 -29 6 -8 3 14 10 28 17 32 7 5 5 8 -6 8 -14 0
-18 -8 -17 -32z"/>
<path d="M4249 3424 c-14 -17 -3 -45 22 -52 8 -2 5 3 -6 12 -20 15 -20 15 1
16 28 0 36 10 23 27 -15 17 -24 17 -40 -3z m36 -4 c3 -5 -3 -10 -15 -10 -12 0
-18 5 -15 10 3 6 10 10 15 10 5 0 12 -4 15 -10z"/>
<path d="M4314 3428 c-4 -6 1 -17 12 -25 16 -12 17 -15 4 -23 -9 -6 -10 -10
-3 -10 21 0 25 21 8 40 -15 17 -15 19 2 23 15 4 16 5 1 6 -9 0 -20 -4 -24 -11z"/>
<path d="M4412 3410 c0 -19 2 -27 5 -17 2 9 2 25 0 35 -3 9 -5 1 -5 -18z"/>
<path d="M4443 3405 c0 -22 2 -30 4 -17 2 12 2 30 0 40 -3 9 -5 -1 -4 -23z"/>
<path d="M4467 3433 c6 -4 13 -22 16 -38 4 -27 5 -27 3 4 0 21 -7 36 -16 38
-10 3 -11 2 -3 -4z"/>
<path d="M4627 3433 c6 -4 13 -22 16 -38 4 -27 5 -27 3 4 0 21 -7 36 -16 38
-10 3 -11 2 -3 -4z"/>
<path d="M4671 3422 c-13 -23 8 -58 30 -49 10 4 9 6 -3 6 -25 1 -22 21 3 21
14 0 19 5 17 17 -5 25 -35 28 -47 5z m39 -2 c0 -5 -7 -10 -15 -10 -8 0 -15 5
-15 10 0 6 7 10 15 10 8 0 15 -4 15 -10z"/>
<path d="M5275 3429 c-4 -6 -4 -13 -1 -16 3 -4 6 -1 6 5 0 18 28 14 39 -5 6
-10 11 -13 11 -7 0 26 -42 45 -55 23z"/>
<path d="M5439 3424 c-14 -17 -3 -45 22 -52 8 -2 5 3 -6 12 -20 15 -20 15 1
16 28 0 36 10 23 27 -15 17 -24 17 -40 -3z m36 -4 c3 -5 -3 -10 -15 -10 -12 0
-18 5 -15 10 3 6 10 10 15 10 5 0 12 -4 15 -10z"/>
<path d="M5504 3428 c-4 -6 0 -16 9 -23 22 -16 21 -22 0 -28 -16 -4 -16 -5 -1
-6 24 -2 34 20 15 34 -22 16 -21 22 1 28 15 4 15 5 0 6 -9 0 -20 -4 -24 -11z"/>
<path d="M5720 3425 c-15 -18 -4 -46 21 -53 8 -2 5 2 -5 10 -12 9 -17 21 -13
32 10 25 35 19 40 -9 4 -23 4 -23 3 2 -1 32 -26 42 -46 18z"/>
<path d="M5800 3425 c-15 -18 -4 -46 21 -53 8 -2 5 2 -5 10 -12 9 -17 21 -13
32 9 24 35 20 40 -6 5 -20 5 -20 4 2 -2 29 -28 38 -47 15z"/>
<path d="M5873 3405 c0 -22 2 -30 4 -17 2 12 2 30 0 40 -3 9 -5 -1 -4 -23z"/>
<path d="M5897 3433 c6 -4 13 -22 16 -38 4 -27 5 -27 3 4 0 21 -7 36 -16 38
-10 3 -11 2 -3 -4z"/>
<path d="M5936 3433 c7 -4 14 -19 17 -33 4 -22 5 -21 4 4 -1 17 -9 31 -17 33
-10 3 -11 2 -4 -4z"/>
<path d="M6105 3415 c7 -31 12 -41 19 -34 2 2 -3 18 -11 34 l-14 30 6 -30z"/>
<path d="M6137 3433 c-4 -3 -7 -11 -7 -17 0 -6 5 -5 12 2 6 6 9 14 7 17 -3 3
-9 2 -12 -2z"/>
<path d="M6220 3430 c13 -9 13 -12 -2 -21 -19 -11 -25 -39 -8 -39 5 0 7 7 4
15 -4 8 -2 15 4 15 6 0 13 -6 15 -12 3 -7 6 2 6 20 1 24 -3 32 -16 32 -16 0
-16 -2 -3 -10z"/>
<path d="M6272 3410 c0 -19 2 -27 5 -17 2 9 2 25 0 35 -3 9 -5 1 -5 -18z"/>
<path d="M6870 3425 c-15 -18 -4 -46 21 -53 8 -2 5 2 -5 10 -12 9 -17 21 -13
32 10 25 35 19 40 -9 4 -23 4 -23 3 2 -1 32 -26 42 -46 18z"/>
<path d="M7080 3433 c18 -9 10 -25 -10 -20 -12 3 -20 0 -20 -7 0 -15 20 -36
34 -36 5 0 1 7 -10 15 -18 14 -18 14 4 15 16 0 22 5 20 17 -2 9 -9 18 -16 19
-7 1 -8 0 -2 -3z"/>
<path d="M7125 3429 c-4 -6 2 -19 14 -30 12 -11 21 -15 21 -10 0 6 -8 15 -17
20 -16 9 -16 12 -3 21 9 6 10 10 3 10 -6 0 -15 -5 -18 -11z"/>
<path d="M3377 3397 c-37 -49 -23 -67 54 -67 66 0 81 14 60 53 -12 22 -53 47
-77 47 -6 0 -23 -15 -37 -33z"/>
<path d="M6150 3398 c0 -9 5 -20 10 -23 13 -8 13 5 0 25 -8 13 -10 13 -10 -2z"/>
<path d="M6790 3404 c0 -17 27 -37 42 -31 8 4 7 6 -4 6 -9 1 -22 9 -27 19 -6
9 -11 12 -11 6z"/>
<path d="M4010 3391 c0 -10 19 -25 25 -20 1 2 -3 10 -11 17 -8 7 -14 8 -14 3z"/>
<path d="M4130 3391 c0 -6 4 -13 10 -16 6 -3 7 1 4 9 -7 18 -14 21 -14 7z"/>
<path d="M5270 3392 c0 -18 29 -27 43 -13 9 9 8 11 -7 5 -11 -4 -21 -2 -27 7
-6 10 -9 11 -9 1z"/>
<path d="M4090 3380 c0 -5 5 -10 11 -10 5 0 7 5 4 10 -3 6 -8 10 -11 10 -2 0
-4 -4 -4 -10z"/>
<path d="M5400 3380 c0 -5 5 -10 11 -10 5 0 7 5 4 10 -3 6 -8 10 -11 10 -2 0
-4 -4 -4 -10z"/>
<path d="M3583 3270 c-1 -25 1 -37 4 -27 3 10 14 17 28 17 14 0 25 -7 28 -17
3 -10 5 2 4 27 0 25 -2 35 -4 23 -3 -16 -11 -23 -28 -23 -17 0 -25 7 -28 23
-2 12 -4 2 -4 -23z"/>
<path d="M3680 3275 c-15 -18 -4 -46 21 -53 8 -2 5 2 -5 10 -12 9 -17 21 -13
32 10 25 35 19 40 -9 4 -23 4 -23 3 2 -1 32 -26 42 -46 18z"/>
<path d="M3753 3261 c1 -21 8 -36 17 -39 12 -4 13 -2 3 9 -6 8 -13 25 -16 39
-4 17 -5 15 -4 -9z"/>
<path d="M3792 3260 c0 -19 2 -27 5 -17 2 9 2 25 0 35 -3 9 -5 1 -5 -18z"/>
<path d="M3824 3278 c-4 -6 1 -17 12 -25 16 -12 17 -15 4 -23 -9 -6 -10 -10
-3 -10 21 0 25 21 8 40 -15 17 -15 19 2 23 15 4 16 5 1 6 -9 0 -20 -4 -24 -11z"/>
<path d="M3884 3276 c-9 -23 0 -51 16 -52 9 0 10 1 3 3 -21 7 -15 23 8 23 14
0 19 5 17 17 -4 23 -36 29 -44 9z m36 -6 c0 -5 -7 -10 -15 -10 -8 0 -15 5 -15
10 0 6 7 10 15 10 8 0 15 -4 15 -10z"/>
<path d="M5205 3260 c-3 -5 -1 -10 4 -10 6 0 11 5 11 10 0 6 -2 10 -4 10 -3 0
-8 -4 -11 -10z"/>
<path d="M6825 3260 c-3 -5 -1 -10 4 -10 6 0 11 5 11 10 0 6 -2 10 -4 10 -3 0
-8 -4 -11 -10z"/>
<path d="M1590 3200 c0 -5 18 -10 40 -10 22 0 40 5 40 10 0 6 -18 10 -40 10
-22 0 -40 -4 -40 -10z"/>
<path d="M1840 3200 c0 -5 18 -10 40 -10 22 0 40 5 40 10 0 6 -18 10 -40 10
-22 0 -40 -4 -40 -10z"/>
<path d="M1022 3125 c4 -4 2 -15 -5 -23 -8 -11 -8 -14 0 -9 6 4 14 1 16 -5 3
-7 6 -3 6 9 1 12 -5 25 -11 29 -7 4 -10 4 -6 -1z"/>
<path d="M2610 3110 c8 -5 28 -10 44 -10 39 0 30 6 -19 13 -27 4 -35 3 -25 -3z"/>
<path d="M2403 3103 c9 -2 23 -2 30 0 6 3 -1 5 -18 5 -16 0 -22 -2 -12 -5z"/>
<path d="M2313 3093 c15 -2 37 -2 50 0 12 2 0 4 -28 4 -27 0 -38 -2 -22 -4z"/>
<path d="M2490 3090 c-9 -6 -10 -10 -3 -10 6 0 15 5 18 10 8 12 4 12 -15 0z"/>
<path d="M2188 3083 c12 -2 32 -2 45 0 12 2 2 4 -23 4 -25 0 -35 -2 -22 -4z"/>
<path d="M2410 3074 c-14 -8 -18 -14 -10 -14 8 1 24 7 34 15 24 19 10 18 -24
-1z"/>
<path d="M1041 3054 c0 -11 3 -14 6 -6 3 7 2 16 -1 19 -3 4 -6 -2 -5 -13z"/>
<path d="M1763 3053 c9 -2 25 -2 35 0 9 3 1 5 -18 5 -19 0 -27 -2 -17 -5z"/>
<path d="M1709 3023 c-13 -16 -12 -17 4 -4 9 7 17 15 17 17 0 8 -8 3 -21 -13z"/>
<path d="M1040 3006 c0 -31 6 -34 13 -6 3 11 1 23 -4 26 -5 3 -9 -6 -9 -20z"/>
<path d="M1494 3008 c-4 -7 -4 -10 1 -6 4 4 15 2 24 -5 14 -11 14 -10 2 6 -16
20 -18 21 -27 5z"/>
<path d="M1943 3013 c26 -2 68 -2 95 0 26 2 4 3 -48 3 -52 0 -74 -1 -47 -3z"/>
<path d="M2113 3013 c15 -2 37 -2 50 0 12 2 0 4 -28 4 -27 0 -38 -2 -22 -4z"/>
<path d="M1838 3003 c6 -2 18 -2 25 0 6 3 1 5 -13 5 -14 0 -19 -2 -12 -5z"/>
<path d="M1609 2963 c-13 -16 -12 -17 4 -4 9 7 17 15 17 17 0 8 -8 3 -21 -13z"/>
<path d="M1667 2969 c7 -7 15 -10 18 -7 3 3 -2 9 -12 12 -14 6 -15 5 -6 -5z"/>
<path d="M1724 2948 l-29 -33 35 30 c19 17 37 31 39 33 2 1 0 2 -5 2 -6 0 -23
-15 -40 -32z"/>
<path d="M1051 2954 c0 -11 3 -14 6 -6 3 7 2 16 -1 19 -3 4 -6 -2 -5 -13z"/>
<path d="M3590 2910 c-9 -6 -10 -10 -3 -10 6 0 15 5 18 10 8 12 4 12 -15 0z"/>
<path d="M1390 2886 c0 -2 8 -10 18 -17 15 -13 16 -12 3 4 -13 16 -21 21 -21
13z"/>
<path d="M1671 2867 c-13 -21 -12 -21 5 -5 10 10 16 20 13 22 -3 3 -11 -5 -18
-17z"/>
<path d="M1257 2869 c7 -7 15 -10 18 -7 3 3 -2 9 -12 12 -14 6 -15 5 -6 -5z"/>
<path d="M1105 2850 c10 -11 20 -20 23 -20 3 0 -3 9 -13 20 -10 11 -20 20 -23
20 -3 0 3 -9 13 -20z"/>
<path d="M1616 2852 c-3 -5 1 -9 9 -9 8 0 12 4 9 9 -3 4 -7 8 -9 8 -2 0 -6 -4
-9 -8z"/>
<path d="M1168 2843 c6 -2 18 -2 25 0 6 3 1 5 -13 5 -14 0 -19 -2 -12 -5z"/>
<path d="M3665 2820 c-3 -5 -1 -10 4 -10 6 0 11 5 11 10 0 6 -2 10 -4 10 -3 0
-8 -4 -11 -10z"/>
<path d="M3675 2720 c-3 -5 -1 -10 4 -10 6 0 11 5 11 10 0 6 -2 10 -4 10 -3 0
-8 -4 -11 -10z"/>
<path d="M3038 2643 c7 -3 16 -2 19 1 4 3 -2 6 -13 5 -11 0 -14 -3 -6 -6z"/>
<path d="M1028 2463 c6 -2 18 -2 25 0 6 3 1 5 -13 5 -14 0 -19 -2 -12 -5z"/>
<path d="M1610 2458 c0 -5 10 -7 23 -4 15 4 13 1 -7 -8 -28 -13 -28 -13 -5
-19 27 -7 26 -8 31 18 2 14 -3 20 -19 21 -13 1 -23 -3 -23 -8z"/>
<path d="M1020 2441 c8 -5 18 -7 24 -4 5 3 6 1 2 -6 -4 -6 -12 -9 -17 -6 -5 3
-6 -1 -3 -9 4 -11 19 -16 45 -16 64 0 45 33 -26 45 -28 5 -36 4 -25 -4z"/>
<path d="M1624 2408 c9 -5 23 -5 32 0 12 6 7 9 -16 9 -23 0 -28 -3 -16 -9z"/>
<path d="M5236 2108 c-34 -31 -44 -68 -18 -68 25 0 62 41 62 68 0 28 -12 28
-44 0z"/>
<path d="M5110 2027 c-60 -30 -72 -114 -28 -205 28 -60 59 -78 99 -62 25 11
38 11 66 1 32 -12 37 -11 60 11 14 12 31 35 39 50 13 25 12 29 -11 52 -31 31
-33 74 -4 110 l20 26 -35 17 c-29 13 -42 14 -72 5 -23 -7 -45 -7 -61 -1 -32
12 -43 11 -73 -4z"/>
<path d="M3195 1170 c0 -371 1 -523 2 -338 2 186 2 490 0 675 -1 186 -2 34 -2
-337z"/>
<path d="M3990 806 c0 -4 8 -15 17 -24 15 -16 106 -17 1205 -17 1046 0 1190 2
1198 15 18 28 11 33 -37 24 -62 -12 -2262 -12 -2330 0 -29 5 -53 6 -53 2z"/>
<path d="M3193 455 c0 -22 2 -30 4 -17 2 12 2 30 0 40 -3 9 -5 -1 -4 -23z"/>
</g>
</svg>
